<svg width="858" height="394" viewBox="0 0 858 394" fill="none" xmlns="http://www.w3.org/2000/svg">
<g clip-path="url(#clip0_112_740)">
<path d="M143.717 0C144.223 0 144.73 0 145.252 0C147.375 10.1697 147.77 20.6704 145.252 30.7978C145.191 31.054 145.131 31.3102 145.068 31.5741C143.332 38.7877 139.79 45.5566 135.502 51.1265C134.787 52.0301 134.787 52.0301 134.197 53.0997C133.994 53.0997 133.791 53.0997 133.583 53.0997C133.5 53.3115 133.418 53.5232 133.333 53.7414C132.969 54.5152 132.632 55.016 132.047 55.5777C131.845 55.5777 131.642 55.5777 131.433 55.5777C131.332 55.9282 131.23 56.2786 131.126 56.6397C130.497 57.3159 130.497 57.3159 129.667 58.0778C129.361 58.3594 129.055 58.6409 128.74 58.931C128.41 59.2298 128.079 59.528 127.748 59.8257C127.586 59.9717 127.424 60.1176 127.257 60.268C125.479 61.8645 123.683 63.4304 121.875 64.9808C120.104 66.5091 118.389 68.1014 116.693 69.7376C116.532 69.8903 116.372 70.0429 116.206 70.2002C111.997 74.2063 108.051 78.5492 104.717 83.5436C104.476 83.8858 104.235 84.2281 103.987 84.5807C94.7397 97.8366 90.09 114.922 91.4542 131.886C91.4816 132.238 91.5089 132.589 91.5371 132.951C91.7402 135.484 91.9827 138.011 92.2411 140.537C94.1862 159.574 94.1862 159.574 94.2756 167.441C94.2802 167.841 94.2849 168.242 94.2897 168.654C94.3182 171.672 94.3084 174.689 94.2756 177.707C94.2733 178.027 94.2711 178.347 94.2688 178.676C94.1726 188.196 92.7981 197.936 90.5905 207.089C90.519 207.396 90.4474 207.703 90.3737 208.02C88.861 214.481 86.5726 220.487 84.1417 226.559C84.0404 248.988 83.939 271.418 83.8346 294.527C129.336 294.527 174.837 294.527 221.716 294.527C221.716 294.293 221.716 294.059 221.716 293.819C227.797 293.819 233.877 293.819 240.142 293.819C240.142 293.585 240.142 293.351 240.142 293.111C240.32 293.068 240.498 293.025 240.681 292.981C242.07 292.637 243.41 292.255 244.748 291.695C245.027 291.592 245.305 291.49 245.592 291.385C246.44 290.896 246.513 290.545 246.898 289.571C246.999 289.353 247.1 289.136 247.205 288.912C247.96 287.265 248.401 285.728 248.74 283.907C248.943 283.907 249.145 283.907 249.354 283.907C249.351 283.612 249.347 283.318 249.343 283.015C249.339 282.438 249.339 282.438 249.335 281.849C249.332 281.467 249.328 281.085 249.324 280.692C249.354 279.659 249.354 279.659 249.661 278.597C249.697 277.864 249.716 277.13 249.724 276.396C249.734 275.707 249.734 275.707 249.743 275.003C249.748 274.514 249.753 274.026 249.759 273.537C249.764 273.093 249.77 272.648 249.776 272.191C249.797 270.528 249.815 268.865 249.834 267.202C249.878 263.486 249.923 259.77 249.968 255.941C262.433 255.941 274.898 255.941 287.74 255.941C287.841 261.431 287.943 266.922 288.047 272.579C288.149 273.396 288.25 274.214 288.354 275.057C288.387 276.005 288.369 276.939 288.354 277.889C288.557 277.889 288.76 277.889 288.968 277.889C288.968 278.823 288.968 279.758 288.968 280.721C289.272 280.837 289.576 280.954 289.89 281.075C290.138 281.707 290.138 281.707 290.331 282.513C290.699 283.916 291.17 285.159 291.757 286.456C292.104 287.238 292.386 288.041 292.654 288.863C292.856 288.863 293.059 288.863 293.268 288.863C293.268 289.096 293.268 289.33 293.268 289.571C293.774 289.804 294.281 290.038 294.803 290.279C294.803 290.512 294.803 290.746 294.803 290.987C295.923 291.437 297.012 291.811 298.181 292.049C298.181 292.282 298.181 292.516 298.181 292.757C298.89 292.757 299.6 292.757 300.331 292.757C300.432 293.107 300.533 293.457 300.638 293.819C322.73 293.819 344.821 293.819 367.583 293.819C367.583 293.585 367.583 293.351 367.583 293.111C367.96 293.014 367.96 293.014 368.346 292.916C368.676 292.827 369.007 292.738 369.348 292.646C369.84 292.517 369.84 292.517 370.342 292.385C371.25 292.055 371.764 291.665 372.496 290.987C372.699 290.987 372.901 290.987 373.11 290.987C373.11 290.636 373.11 290.286 373.11 289.925C373.313 289.925 373.516 289.925 373.724 289.925C373.769 289.465 373.813 289.005 373.859 288.531C373.993 287.137 373.993 287.137 374.339 286.739C374.409 286.262 374.465 285.781 374.511 285.3C374.556 284.84 374.6 284.38 374.646 283.907C374.95 283.79 375.254 283.673 375.567 283.553C375.567 274.441 375.567 265.329 375.567 255.941C388.133 255.941 400.699 255.941 413.646 255.941C413.747 260.38 413.848 264.819 413.953 269.393C414.054 269.626 414.155 269.86 414.26 270.101C414.324 270.738 414.373 271.378 414.413 272.019C414.439 272.404 414.464 272.79 414.49 273.188C414.528 273.795 414.528 273.795 414.567 274.415C414.785 277.933 414.785 277.933 415.181 281.429C415.485 281.545 415.789 281.662 416.102 281.783C416.372 282.502 416.372 282.502 416.582 283.376C416.779 284.23 416.779 284.23 417.024 284.969C417.328 285.144 417.328 285.144 417.638 285.323C417.695 285.64 417.695 285.64 417.753 285.964C418.006 286.984 418.522 287.428 419.173 288.155C419.173 288.388 419.173 288.622 419.173 288.863C419.408 288.965 419.642 289.067 419.883 289.172C420.709 289.571 420.709 289.571 421.63 290.279C421.63 290.512 421.63 290.746 421.63 290.987C422.035 290.987 422.441 290.987 422.858 290.987C422.858 291.22 422.858 291.454 422.858 291.695C424.475 292.092 426.108 292.326 427.746 292.58C428.693 292.757 428.693 292.757 429.307 293.111C429.307 293.344 429.307 293.578 429.307 293.819C482.611 293.702 535.915 293.585 590.835 293.465C590.531 292.296 590.227 291.128 589.913 289.925C589.711 289.808 589.508 289.691 589.299 289.571C589.299 288.87 589.299 288.169 589.299 287.447C589.096 287.447 588.894 287.447 588.685 287.447C588.624 286.954 588.624 286.954 588.561 286.452C588.507 286.028 588.453 285.604 588.397 285.168C588.317 284.533 588.317 284.533 588.235 283.886C588.166 282.887 588.166 282.887 587.764 282.491C587.719 282.089 587.675 281.687 587.629 281.274C587.565 279.998 587.565 279.998 586.842 279.305C586.726 278.474 586.726 278.474 586.67 277.512C586.677 276.353 586.677 276.353 586.228 275.411C586.228 274.715 586.229 274.019 586.247 273.324C586.252 272.589 586.252 272.589 586.084 271.937C585.764 270.419 585.778 268.831 585.7 267.276C585.717 266.25 585.717 266.25 585.307 265.853C585.285 265.079 585.281 264.304 585.288 263.53C585.291 263.106 585.293 262.682 585.296 262.245C585.3 261.917 585.303 261.589 585.307 261.251C585.104 261.251 584.902 261.251 584.693 261.251C584.341 260.44 584.301 259.851 584.232 258.95C584.207 258.636 584.182 258.322 584.155 257.998C584.104 257.335 584.053 256.671 584.002 256.007C583.977 255.693 583.951 255.379 583.925 255.056C583.903 254.767 583.881 254.479 583.858 254.182C583.803 253.44 583.803 253.44 583.464 252.755C583.423 251.809 583.451 250.871 583.464 249.923C583.262 249.923 583.059 249.923 582.85 249.923C582.85 249.105 582.85 248.287 582.85 247.445C582.648 247.445 582.445 247.445 582.236 247.445C581.79 245.839 581.55 244.549 581.622 242.843C581.419 242.843 581.217 242.843 581.008 242.843C581.008 242.259 581.008 241.675 581.008 241.073C580.805 241.073 580.602 241.073 580.394 241.073C580.394 240.605 580.394 240.138 580.394 239.657C580.191 239.657 579.988 239.657 579.779 239.657C579.779 239.19 579.779 238.722 579.779 238.241C579.577 238.241 579.374 238.241 579.165 238.241C579.032 237.81 578.899 237.379 578.762 236.935C578.114 234.761 578.114 234.761 576.709 233.285C576.517 232.378 576.517 232.378 576.401 231.515C576.199 231.515 575.996 231.515 575.787 231.515C575.787 231.281 575.787 231.048 575.787 230.807C575.483 230.69 575.179 230.573 574.866 230.453C574.866 230.102 574.866 229.752 574.866 229.391C574.663 229.391 574.461 229.391 574.252 229.391C574.252 229.157 574.252 228.924 574.252 228.683C574.011 228.595 573.771 228.508 573.523 228.417C572.574 227.896 572.552 227.595 572.102 226.559C571.397 226.157 571.397 226.157 570.567 225.851C569.95 225.502 569.336 225.149 568.724 224.789C568.724 224.438 568.724 224.088 568.724 223.727C568.015 223.61 567.306 223.493 566.575 223.373C566.575 223.139 566.575 222.906 566.575 222.665C566.372 222.694 566.169 222.723 565.961 222.753C565.029 222.664 564.632 222.461 563.83 221.957C562.754 221.288 561.979 221.106 560.74 221.249C560.74 221.132 560.74 221.015 560.74 220.895C560.522 220.873 560.304 220.852 560.079 220.83C559.797 220.8 559.515 220.771 559.224 220.74C558.942 220.711 558.661 220.683 558.371 220.653C557.669 220.541 557.669 220.541 557.362 220.187C556.402 220.045 555.431 220.017 554.464 219.966C554.168 219.95 553.872 219.934 553.568 219.918C551.117 219.811 548.68 219.857 546.23 219.966C545.881 219.981 545.532 219.996 545.173 220.012C543.538 220.017 543.538 220.017 542.008 220.541C541.51 220.613 541.011 220.67 540.511 220.718C539.542 220.811 538.647 220.956 537.709 221.249C537.436 221.307 537.164 221.366 536.883 221.426C536.188 221.522 536.188 221.522 535.866 221.957C535.15 221.971 534.433 221.972 533.716 221.957C533.716 222.191 533.716 222.424 533.716 222.665C533.108 222.782 532.5 222.899 531.874 223.019C531.874 223.136 531.874 223.253 531.874 223.373C530.658 223.49 529.442 223.607 528.189 223.727C528.088 224.077 527.986 224.428 527.882 224.789C527.156 225.137 527.156 225.137 526.25 225.408C525.954 225.501 525.657 225.595 525.352 225.69C524.517 225.848 524.055 225.856 523.276 225.497C522.686 224.496 522.536 223.488 522.354 222.311C522.019 220.367 521.582 218.514 521.019 216.641C520.787 215.827 520.658 215.009 520.512 214.169C520.354 213.652 520.194 213.136 520.032 212.62C519.599 211.174 519.506 210.026 519.59 208.505C519.388 208.388 519.185 208.271 518.976 208.151C518.66 206.367 518.642 204.651 518.669 202.841C518.365 202.724 518.061 202.607 517.748 202.487C517.748 201.786 517.748 201.085 517.748 200.363C518.255 200.363 518.761 200.363 519.283 200.363C519.385 200.013 519.486 199.662 519.59 199.301C520.44 198.928 521.251 198.625 522.124 198.35C522.359 198.27 522.593 198.19 522.835 198.108C524.031 197.717 525.09 197.424 526.346 197.531C526.448 197.181 526.549 196.83 526.653 196.469C526.93 196.407 526.93 196.407 527.212 196.345C528.044 196.159 528.874 195.971 529.705 195.783C529.995 195.719 530.286 195.654 530.585 195.587C530.861 195.525 531.137 195.462 531.422 195.397C531.677 195.34 531.933 195.282 532.197 195.223C532.793 195.117 532.793 195.117 533.102 194.699C533.819 194.685 534.535 194.684 535.252 194.699C535.353 194.349 535.455 193.998 535.559 193.637C535.91 193.59 536.261 193.543 536.623 193.495C537.081 193.432 537.539 193.368 537.996 193.305C538.228 193.274 538.46 193.244 538.699 193.212C539.834 193.162 539.834 193.162 540.779 192.575C541.246 192.55 541.714 192.545 542.181 192.553C542.434 192.556 542.688 192.559 542.949 192.563C543.145 192.567 543.341 192.571 543.543 192.575C543.543 192.341 543.543 192.108 543.543 191.867C544.658 191.75 545.773 191.633 546.921 191.513C546.921 191.396 546.921 191.279 546.921 191.159C547.269 191.138 547.616 191.116 547.974 191.094C548.429 191.064 548.884 191.034 549.339 191.004C549.569 190.99 549.798 190.976 550.034 190.962C551.282 190.906 551.282 190.906 552.449 190.451C552.964 190.417 553.481 190.406 553.998 190.405C554.482 190.404 554.482 190.404 554.976 190.402C555.326 190.403 555.676 190.403 556.037 190.404C556.574 190.404 556.574 190.404 557.122 190.403C557.881 190.403 558.639 190.403 559.398 190.405C560.561 190.407 561.725 190.405 562.888 190.403C563.624 190.403 564.36 190.403 565.096 190.404C565.445 190.403 565.794 190.403 566.154 190.402C566.478 190.403 566.802 190.404 567.135 190.405C567.421 190.406 567.706 190.406 568 190.406C568.724 190.451 568.724 190.451 569.646 190.805C570.485 190.886 571.319 190.953 572.16 191.004C572.39 191.019 572.62 191.035 572.857 191.05C573.424 191.088 573.992 191.124 574.559 191.159C574.559 191.276 574.559 191.393 574.559 191.513C575.572 191.63 576.586 191.747 577.63 191.867C577.63 192.101 577.63 192.334 577.63 192.575C577.801 192.567 577.972 192.559 578.148 192.55C579.826 192.504 581.248 192.73 582.85 193.283C583.26 193.416 583.669 193.549 584.079 193.681C584.383 193.783 584.687 193.886 585 193.991C585 194.225 585 194.458 585 194.699C585.608 194.699 586.216 194.699 586.842 194.699C586.842 194.933 586.842 195.166 586.842 195.407C587.856 195.524 588.869 195.641 589.913 195.761C589.913 195.995 589.913 196.228 589.913 196.469C590.319 196.469 590.724 196.469 591.142 196.469C591.142 196.819 591.142 197.17 591.142 197.531C591.357 197.575 591.572 197.619 591.794 197.664C592.731 197.899 593.615 198.229 594.52 198.593C594.52 198.827 594.52 199.06 594.52 199.301C594.925 199.418 595.33 199.535 595.748 199.655C595.748 199.889 595.748 200.122 595.748 200.363C596.356 200.48 596.964 200.597 597.59 200.717C597.59 200.951 597.59 201.184 597.59 201.425C597.894 201.425 598.198 201.425 598.512 201.425C598.512 201.659 598.512 201.892 598.512 202.133C598.816 202.133 599.12 202.133 599.433 202.133C599.433 202.367 599.433 202.6 599.433 202.841C599.94 203.075 600.446 203.308 600.968 203.549C600.968 203.783 600.968 204.016 600.968 204.257C601.146 204.293 601.323 204.33 601.506 204.368C602.306 204.65 602.803 205.032 603.425 205.673C603.425 205.907 603.425 206.14 603.425 206.381C603.628 206.381 603.83 206.381 604.039 206.381C604.039 206.615 604.039 206.848 604.039 207.089C604.445 207.323 604.85 207.556 605.268 207.797C605.268 208.031 605.268 208.264 605.268 208.505C605.435 208.579 605.602 208.654 605.774 208.73C606.763 209.391 607.464 210.303 608.223 211.271C608.374 211.455 608.524 211.64 608.679 211.83C609.541 212.917 610.027 213.873 610.488 215.231C610.792 215.348 611.096 215.465 611.409 215.585C611.835 216.202 611.835 216.202 612.235 216.957C612.369 217.204 612.503 217.451 612.641 217.706C612.945 218.417 612.945 218.417 612.945 219.479C613.147 219.479 613.35 219.479 613.559 219.479C614.787 221.824 614.787 221.824 614.787 223.019C614.99 223.019 615.193 223.019 615.401 223.019C615.401 223.486 615.401 223.953 615.401 224.435C615.706 224.552 616.01 224.669 616.323 224.789C616.614 225.406 616.614 225.406 616.841 226.161C616.918 226.408 616.995 226.655 617.075 226.91C617.244 227.621 617.244 227.621 617.244 228.683C617.447 228.683 617.649 228.683 617.858 228.683C618.703 231.008 619.416 233.336 620.008 235.763C620.109 235.763 620.21 235.763 620.315 235.763C620.359 236.164 620.404 236.566 620.449 236.98C620.503 238.173 620.503 238.173 620.929 238.595C621.031 239.421 621.134 240.247 621.236 241.073C621.337 241.19 621.439 241.306 621.543 241.427C621.556 242.253 621.556 243.079 621.543 243.905C621.746 243.905 621.949 243.905 622.157 243.905C622.227 244.619 622.297 245.334 622.367 246.048C622.438 246.763 622.438 246.763 622.772 247.445C622.765 247.854 622.759 248.262 622.752 248.684C622.647 249.944 622.647 249.944 623.386 250.631C623.502 251.384 623.502 251.384 623.558 252.246C623.565 253.314 623.565 253.314 624 254.171C624.066 254.744 624.114 255.32 624.153 255.896C624.191 256.419 624.191 256.419 624.23 256.953C624.281 257.694 624.333 258.435 624.384 259.176C624.422 259.699 624.422 259.699 624.461 260.233C624.483 260.555 624.505 260.877 624.528 261.209C624.546 261.952 624.546 261.952 624.921 262.313C624.943 263.087 624.947 263.861 624.94 264.636C624.938 265.06 624.935 265.484 624.932 265.92C624.928 266.249 624.925 266.577 624.921 266.915C625.124 266.915 625.327 266.915 625.535 266.915C625.96 268.383 625.961 269.855 626.028 271.389C626.078 272.736 626.078 272.736 626.457 273.995C626.527 274.868 626.58 275.733 626.621 276.608C626.641 277.014 626.641 277.014 626.661 277.428C626.689 278.01 626.716 278.591 626.742 279.173C626.781 280.017 626.824 280.86 626.867 281.704C627.132 287.414 627.071 293.027 627.071 298.775C703.277 298.775 779.484 298.775 858 298.775C857.006 300.207 856.113 301.214 854.871 302.292C853.174 303.797 851.51 305.34 849.862 306.916C848.267 308.44 846.661 309.942 845.026 311.408C843.472 312.801 841.963 314.242 840.469 315.717C838.885 317.272 837.253 318.751 835.611 320.223C834.682 321.022 834.682 321.022 834.008 321.827C832.775 322.757 831.79 322.688 830.345 322.669C830.063 322.671 829.78 322.673 829.489 322.675C828.536 322.679 827.582 322.674 826.629 322.669C825.938 322.67 825.247 322.672 824.557 322.674C822.646 322.679 820.735 322.675 818.825 322.67C816.965 322.666 815.104 322.669 813.244 322.672C809.392 322.677 805.539 322.676 801.687 322.671C797.781 322.666 793.876 322.664 789.971 322.665C789.601 322.666 789.601 322.666 789.224 322.666C787.967 322.666 786.711 322.667 785.454 322.668C776.352 322.672 767.25 322.67 758.149 322.664C749.131 322.658 740.114 322.654 731.097 322.654C730.531 322.654 729.965 322.654 729.4 322.654C727.126 322.654 724.852 322.654 722.578 322.654C716.222 322.655 709.865 322.654 703.509 322.654C703.219 322.654 702.93 322.654 702.631 322.654C693.404 322.653 684.176 322.65 674.948 322.645C674.649 322.645 674.35 322.645 674.041 322.645C669.179 322.643 664.317 322.64 659.455 322.638C640.173 322.628 620.891 322.623 601.609 322.624C601 322.624 600.391 322.624 599.781 322.624C598.564 322.624 597.347 322.624 596.13 322.624C593.4 322.624 590.671 322.624 587.942 322.624C587.337 322.624 586.733 322.624 586.128 322.624C569.984 322.624 553.84 322.621 537.696 322.617C537.414 322.616 537.133 322.616 536.842 322.616C531.705 322.615 531.705 322.615 529.192 322.614C522.991 322.612 516.79 322.611 510.589 322.611C510.17 322.611 510.17 322.611 509.742 322.611C508.615 322.611 507.489 322.611 506.362 322.611C495.912 322.61 485.463 322.608 475.013 322.6C474.012 322.6 473.011 322.599 472.01 322.598C471.764 322.598 471.518 322.598 471.265 322.598C467.37 322.595 463.475 322.595 459.58 322.596C455.753 322.597 451.926 322.595 448.098 322.59C446.05 322.588 444.001 322.587 441.953 322.589C440.091 322.591 438.229 322.589 436.367 322.585C435.696 322.584 435.025 322.584 434.354 322.586C433.445 322.588 432.537 322.585 431.628 322.582C431.368 322.584 431.109 322.585 430.841 322.587C428.599 322.57 426.223 322.355 424.394 320.722C424.394 320.489 424.394 320.255 424.394 320.014C423.786 319.898 423.178 319.781 422.551 319.66C422.551 319.427 422.551 319.193 422.551 318.952C422.323 318.865 422.095 318.777 421.86 318.687C420.945 318.207 420.432 317.71 419.787 316.828C419.787 316.595 419.787 316.361 419.787 316.12C419.281 315.887 418.774 315.653 418.252 315.412C418.252 314.945 418.252 314.478 418.252 313.996C417.948 313.88 417.644 313.763 417.331 313.642C416.812 313.156 416.812 313.156 416.409 312.58C416.409 312.23 416.409 311.88 416.409 311.518C416.207 311.518 416.004 311.518 415.795 311.518C415.795 311.168 415.795 310.818 415.795 310.456C415.593 310.456 415.39 310.456 415.181 310.456C414.978 309.756 414.776 309.055 414.567 308.332C414.364 308.332 414.161 308.332 413.953 308.332C413.646 307.624 413.339 306.916 413.031 306.208C412.879 305.895 412.727 305.581 412.571 305.257C411.929 303.622 411.567 301.927 411.189 300.19C410.986 300.307 410.784 300.424 410.575 300.544C410.575 301.129 410.575 301.713 410.575 302.314C410.372 302.314 410.169 302.314 409.961 302.314C409.999 302.676 409.999 302.676 410.037 303.045C409.95 304.223 409.58 304.937 409.047 305.932C408.611 306.807 408.363 307.722 408.118 308.686C407.915 308.686 407.713 308.686 407.504 308.686C407.504 309.037 407.504 309.387 407.504 309.748C407.301 309.748 407.099 309.748 406.89 309.748C406.801 310.019 406.712 310.289 406.621 310.567C406.276 311.518 406.276 311.518 405.661 312.58C405.459 312.58 405.256 312.58 405.047 312.58C405.047 312.814 405.047 313.048 405.047 313.288C404.844 313.288 404.642 313.288 404.433 313.288C404.332 313.756 404.23 314.223 404.126 314.704C403.822 314.704 403.518 314.704 403.205 314.704C403.205 314.938 403.205 315.172 403.205 315.412C403.002 315.412 402.799 315.412 402.59 315.412C402.59 315.646 402.59 315.88 402.59 316.12C402.053 316.873 402.053 316.873 401.362 317.536C400.957 317.536 400.551 317.536 400.134 317.536C400.134 317.77 400.134 318.004 400.134 318.244C399.213 318.952 399.213 318.952 398.291 318.952C398.291 319.186 398.291 319.42 398.291 319.66C397.943 319.763 397.595 319.865 397.236 319.97C396.875 320.102 396.514 320.233 396.142 320.368C396.04 320.602 395.939 320.836 395.835 321.076C395.222 321.365 395.222 321.365 394.472 321.63C393.442 321.996 393.442 321.996 392.457 322.492C390.898 322.816 389.426 322.878 387.85 322.846C387.749 323.197 387.648 323.547 387.543 323.908C359.878 323.908 332.212 323.908 303.709 323.908C303.607 323.675 303.506 323.441 303.402 323.2C302.865 322.892 302.865 322.892 302.231 322.647C302.02 322.559 301.809 322.471 301.591 322.38C300.971 322.148 300.351 321.957 299.716 321.784C299.716 321.551 299.716 321.317 299.716 321.076C299.21 320.96 298.703 320.843 298.181 320.722C298.181 320.489 298.181 320.255 298.181 320.014C297.909 319.927 297.636 319.839 297.356 319.749C296.297 319.288 295.653 318.738 294.803 317.89C294.499 317.657 294.195 317.423 293.882 317.182C293.781 316.832 293.679 316.481 293.575 316.12C293.372 316.011 293.169 315.901 292.961 315.789C292.346 315.412 292.346 315.412 292.116 314.66C292.078 314.332 292.078 314.332 292.039 313.996C291.735 313.996 291.431 313.996 291.118 313.996C290.692 313.402 290.692 313.402 290.293 312.625C290.159 312.37 290.024 312.115 289.886 311.853C289.583 311.164 289.583 311.164 289.583 310.456C289.279 310.34 288.975 310.223 288.661 310.102C288.56 309.518 288.459 308.934 288.354 308.332C288.152 308.332 287.949 308.332 287.74 308.332C286.57 305.792 285.588 303.339 284.976 300.544C284.277 301.35 284.233 301.688 284.055 302.779C283.842 303.988 283.576 305.079 283.134 306.208C282.931 306.208 282.728 306.208 282.52 306.208C282.475 306.42 282.431 306.632 282.385 306.85C282.247 307.469 282.081 308.08 281.905 308.686C281.703 308.686 281.5 308.686 281.291 308.686C281.266 308.884 281.241 309.081 281.215 309.284C280.915 310.348 280.368 311.013 279.756 311.872C279.655 312.223 279.553 312.573 279.449 312.934C278.981 313.465 278.981 313.465 278.412 313.996C277.846 314.53 277.311 315.044 276.807 315.656C276.378 316.12 276.378 316.12 275.764 316.12C275.764 316.354 275.764 316.588 275.764 316.828C275.567 316.931 275.371 317.033 275.169 317.138C274.489 317.476 274.489 317.476 274.228 318.244C273.924 318.244 273.62 318.244 273.307 318.244C273.307 318.478 273.307 318.712 273.307 318.952C272.984 319.106 272.661 319.259 272.328 319.417C271.607 319.769 271.001 320.128 270.332 320.612C269.622 321.076 269.622 321.076 268.394 321.076C268.394 321.31 268.394 321.544 268.394 321.784C268.131 321.831 267.869 321.878 267.598 321.927C267.259 321.989 266.92 322.052 266.57 322.116C266.232 322.178 265.893 322.239 265.545 322.303C264.738 322.393 264.738 322.393 264.402 322.846C263.581 322.896 262.767 322.861 261.945 322.846C261.945 323.08 261.945 323.314 261.945 323.554C261.22 323.972 260.792 323.953 259.984 323.952C259.699 323.953 259.414 323.954 259.12 323.955C258.646 323.953 258.646 323.953 258.162 323.952C257.827 323.952 257.492 323.953 257.146 323.953C256.01 323.954 254.874 323.952 253.737 323.951C252.92 323.951 252.102 323.951 251.285 323.952C249.5 323.953 247.716 323.952 245.932 323.951C243.278 323.948 240.625 323.948 237.972 323.949C233.509 323.949 229.046 323.948 224.584 323.946C220.163 323.944 215.743 323.942 211.322 323.942C210.911 323.942 210.911 323.942 210.491 323.942C209.096 323.942 207.702 323.942 206.308 323.942C196.425 323.941 186.542 323.938 176.659 323.935C167.057 323.932 157.454 323.929 147.851 323.928C147.555 323.928 147.259 323.928 146.955 323.928C143.984 323.927 141.013 323.927 138.042 323.926C131.989 323.925 125.937 323.924 119.884 323.923C119.467 323.923 119.467 323.923 119.041 323.923C100.447 323.92 81.8535 323.914 63.2598 323.908C63.2602 323.706 63.2606 323.503 63.261 323.294C63.2844 311.257 63.2933 299.219 63.2836 287.182C63.2824 285.734 63.2814 284.285 63.2804 282.837C63.2802 282.549 63.28 282.26 63.2798 281.963C63.277 277.307 63.2839 272.651 63.2944 267.995C63.305 263.21 63.305 258.425 63.2954 253.641C63.2898 250.693 63.2923 247.745 63.3053 244.798C63.3135 242.771 63.3113 240.744 63.3014 238.717C63.2959 237.551 63.2963 236.386 63.306 235.22C63.3482 229.742 62.9302 225.621 60.5098 220.849C59.7484 219.278 59.2467 217.558 58.7111 215.873C58.5392 215.339 58.5392 215.339 58.3637 214.795C57.5716 212.286 56.9314 209.78 56.4283 207.175C56.2186 206.045 56.2186 206.045 55.9053 205.052C54.9963 201.815 54.563 198.396 54.0472 195.053C53.9843 194.658 53.9214 194.263 53.8566 193.856C51.1859 176.302 52.5968 157.449 54.725 139.932C55.2398 135.689 55.6602 131.551 55.4831 127.261C55.2282 120.911 55.2546 116.186 58.7291 110.918C59.2857 110.066 59.7968 109.193 60.3041 108.301C61.2588 106.631 62.2489 104.993 63.2598 103.367C63.3884 103.16 63.517 102.953 63.6495 102.739C65.293 100.106 67.0829 97.6374 68.9182 95.1821C69.2761 94.69 69.6257 94.1898 69.9707 93.6856C71.8053 91.0198 73.8165 88.6227 75.9125 86.2311C76.4856 85.577 77.0561 84.92 77.6263 84.2626C79.438 82.1803 81.2509 80.1196 83.2204 78.2336C83.4061 78.0545 83.5917 77.8754 83.783 77.6909C85.2186 76.3171 86.6754 74.9731 88.1338 73.6316C88.337 73.4444 88.5401 73.2571 88.7494 73.0642C92.5798 69.5534 96.6232 66.438 100.724 63.3657C100.979 63.1745 101.233 62.9833 101.494 62.7863C104.82 60.2928 108.224 57.9773 111.677 55.7284C114.767 53.7048 117.715 51.4663 120.57 49.0288C120.763 48.8646 120.956 48.7005 121.154 48.5315C124.452 45.7128 124.452 45.7128 127.441 42.4798C128.088 41.7438 128.736 41.0088 129.384 40.2742C129.92 39.6804 129.92 39.6804 130.205 38.9398C130.407 38.9398 130.61 38.9398 130.819 38.9398C130.888 38.7564 130.957 38.5729 131.028 38.3839C131.471 37.4438 132.003 36.6152 132.563 35.764C139.273 25.5718 142.911 12.7212 143.717 0Z" fill="white"/>
<path d="M726.002 212.681C726.268 212.679 726.534 212.677 726.809 212.675C727.37 212.672 727.932 212.669 728.494 212.668C729.34 212.665 730.185 212.654 731.031 212.642C734.193 212.621 737.009 212.878 740.079 213.815C740.564 213.93 741.05 214.041 741.537 214.147C742.775 214.464 743.898 214.99 745.063 215.559C746.383 216.149 747.745 216.563 749.11 216.991C749.373 217.111 749.635 217.231 749.905 217.355C750.007 217.705 750.108 218.056 750.213 218.417C750.466 218.446 750.719 218.475 750.98 218.505C752.291 218.829 753.342 219.451 754.512 220.187C754.512 220.421 754.512 220.654 754.512 220.895C755.018 221.012 755.525 221.129 756.047 221.249C756.047 221.483 756.047 221.716 756.047 221.957C756.655 222.074 757.263 222.191 757.89 222.311C757.89 222.545 757.89 222.778 757.89 223.019C758.092 223.019 758.295 223.019 758.504 223.019C758.504 223.253 758.504 223.486 758.504 223.727C758.726 223.815 758.947 223.902 759.176 223.992C760.124 224.478 760.81 225.045 761.575 225.851C761.575 226.085 761.575 226.318 761.575 226.559C761.841 226.712 761.841 226.712 762.112 226.869C762.454 227.066 762.454 227.066 762.803 227.267C763.025 227.369 763.246 227.471 763.475 227.577C764.031 227.975 764.031 227.975 764.262 228.727C764.287 228.946 764.312 229.165 764.339 229.391C764.643 229.391 764.947 229.391 765.26 229.391C765.932 230.033 765.932 230.033 766.488 230.807C766.488 231.157 766.488 231.508 766.488 231.869C766.691 231.869 766.893 231.869 767.102 231.869C767.102 232.103 767.102 232.336 767.102 232.577C767.761 232.286 767.761 232.286 768.004 231.559C768.792 229.744 770.435 228.431 772.016 227.621C772.016 227.387 772.016 227.154 772.016 226.913C773.09 225.761 773.981 224.962 775.394 224.435C775.394 224.201 775.394 223.968 775.394 223.727C775.909 223.271 775.909 223.271 776.584 222.798C776.804 222.64 777.025 222.482 777.253 222.319C777.85 221.957 777.85 221.957 778.465 221.957C778.465 221.723 778.465 221.49 778.465 221.249C778.712 221.147 778.959 221.044 779.213 220.939C780.041 220.636 780.041 220.636 780.307 219.833C780.976 219.454 780.976 219.454 781.804 219.081C782.076 218.956 782.347 218.831 782.627 218.702C783.378 218.417 783.378 218.417 784.299 218.417C784.4 218.066 784.502 217.716 784.606 217.355C785.105 217.056 785.105 217.056 785.748 216.824C785.984 216.736 786.22 216.649 786.463 216.558C786.712 216.471 786.96 216.383 787.216 216.293C787.456 216.205 787.695 216.118 787.941 216.027C788.427 215.849 788.913 215.673 789.4 215.499C790.131 215.232 790.855 214.946 791.58 214.657C792.641 214.247 793.668 213.973 794.778 213.793C795.742 213.635 796.608 213.451 797.535 213.1C798.893 212.648 800.205 212.657 801.61 212.671C801.881 212.672 802.151 212.672 802.43 212.672C803 212.673 803.569 212.676 804.139 212.68C805.005 212.687 805.87 212.687 806.736 212.687C807.292 212.689 807.848 212.691 808.404 212.694C808.66 212.694 808.916 212.694 809.18 212.695C810.738 212.709 812.237 212.851 813.779 213.107C813.779 213.341 813.779 213.574 813.779 213.815C814.077 213.8 814.375 213.786 814.682 213.771C816.067 213.764 817.357 214.132 818.693 214.523C818.693 214.757 818.693 214.99 818.693 215.231C818.994 215.272 819.296 215.313 819.607 215.355C820.916 215.572 822.153 215.976 823.414 216.426C823.636 216.5 823.858 216.574 824.087 216.65C824.653 216.851 825.206 217.1 825.756 217.355C825.857 217.705 825.959 218.056 826.063 218.417C826.443 218.461 826.443 218.461 826.831 218.505C828.141 218.829 829.193 219.451 830.362 220.187C830.362 220.421 830.362 220.654 830.362 220.895C830.869 221.012 831.376 221.129 831.898 221.249C831.898 221.483 831.898 221.716 831.898 221.957C832.23 222.099 832.23 222.099 832.569 222.245C833.432 222.665 834.196 223.116 834.968 223.727C834.968 223.961 834.968 224.194 834.968 224.435C835.177 224.508 835.386 224.581 835.602 224.656C836.912 225.363 838.3 226.451 838.961 227.975C839.227 228.117 839.227 228.117 839.498 228.263C840.42 228.824 841.03 229.564 841.724 230.453C841.724 230.687 841.724 230.92 841.724 231.161C841.927 231.161 842.13 231.161 842.339 231.161C842.377 231.489 842.377 231.489 842.415 231.825C842.491 232.073 842.567 232.321 842.646 232.577C842.82 232.662 842.994 232.747 843.173 232.834C844.2 233.495 844.795 234.519 845.486 235.586C845.627 235.796 845.768 236.007 845.913 236.223C846.945 237.791 846.945 237.791 846.945 238.595C847.147 238.595 847.35 238.595 847.559 238.595C848.173 239.657 848.173 239.657 848.173 240.719C848.376 240.719 848.579 240.719 848.787 240.719C849.709 242.754 849.709 242.754 849.709 243.551C849.911 243.551 850.114 243.551 850.323 243.551C850.582 244.109 850.837 244.67 851.09 245.232C851.233 245.544 851.375 245.857 851.522 246.178C851.858 247.091 851.858 247.091 851.858 248.507C852.061 248.507 852.264 248.507 852.472 248.507C852.599 248.901 852.726 249.295 852.856 249.702C853.227 250.848 853.622 251.979 854.027 253.109C854.412 254.207 854.731 255.275 854.967 256.427C855.177 257.64 855.177 257.64 855.54 258.405C857.646 263.299 857.255 270.029 857.205 275.324C857.194 276.575 857.192 277.825 857.193 279.076C857.19 279.884 857.186 280.693 857.182 281.501C857.181 281.868 857.18 282.236 857.18 282.615C857.176 282.965 857.172 283.315 857.168 283.676C857.166 283.978 857.163 284.28 857.161 284.591C857.043 286.15 856.731 287.682 856.464 289.217C852.918 289.217 849.371 289.217 845.716 289.217C845.716 287.093 845.716 287.093 846.024 286.739C846.096 285.844 846.153 284.958 846.196 284.061C846.21 283.81 846.223 283.558 846.236 283.299C846.269 282.676 846.3 282.052 846.331 281.429C846.533 281.429 846.736 281.429 846.945 281.429C846.945 277.924 846.945 274.419 846.945 270.809C846.742 270.809 846.539 270.809 846.331 270.809C846.312 270.455 846.293 270.101 846.274 269.737C846.249 269.28 846.223 268.823 846.196 268.353C846.171 267.897 846.146 267.441 846.121 266.971C846.131 265.902 846.131 265.902 845.716 265.499C845.723 265.214 845.729 264.929 845.736 264.636C845.806 263.669 845.806 263.669 845.102 263.021C844.975 262.022 844.975 262.022 844.91 260.852C844.887 260.465 844.864 260.077 844.841 259.677C844.826 259.379 844.811 259.08 844.795 258.773C844.593 258.773 844.39 258.773 844.181 258.773C843.684 257.862 843.553 257.471 843.682 256.383C843.745 256.12 843.809 255.858 843.874 255.587C843.57 255.587 843.266 255.587 842.953 255.587C842.851 254.769 842.75 253.951 842.646 253.109C842.443 253.109 842.24 253.109 842.031 253.109C842.031 252.758 842.031 252.408 842.031 252.047C841.829 252.047 841.626 252.047 841.417 252.047C841.417 251.579 841.417 251.112 841.417 250.631C841.215 250.631 841.012 250.631 840.803 250.631C840.496 249.569 840.189 248.507 839.882 247.445C839.679 247.445 839.476 247.445 839.268 247.445C839.166 247.094 839.065 246.744 838.961 246.383C838.657 246.149 838.353 245.916 838.039 245.675C838.001 245.456 837.963 245.237 837.924 245.011C837.777 244.169 837.777 244.169 837.003 243.595C836.082 242.736 835.77 241.941 835.276 240.719C835.073 240.602 834.87 240.485 834.661 240.365C834.661 240.131 834.661 239.898 834.661 239.657C834.459 239.657 834.256 239.657 834.047 239.657C833.638 239.14 833.638 239.14 833.183 238.462C832.395 237.357 831.828 236.985 830.669 236.471C830.265 235.973 830.265 235.973 829.863 235.387C829.215 234.272 829.215 234.272 828.213 233.993C828.213 233.759 828.213 233.526 828.213 233.285C828.01 233.285 827.807 233.285 827.598 233.285C827.598 233.051 827.598 232.818 827.598 232.577C827.406 232.513 827.214 232.448 827.015 232.382C826.764 232.293 826.513 232.204 826.255 232.112C826.005 232.026 825.756 231.94 825.499 231.851C824.835 231.515 824.835 231.515 824.22 230.453C823.482 230.018 823.482 230.018 822.647 229.679C822.367 229.557 822.088 229.435 821.8 229.309C821.585 229.219 821.371 229.13 821.15 229.037C821.15 228.803 821.15 228.57 821.15 228.329C820.542 228.329 819.933 228.329 819.307 228.329C819.307 228.095 819.307 227.862 819.307 227.621C818.933 227.577 818.56 227.533 818.175 227.488C817.138 227.342 816.268 227.074 815.315 226.559C815.315 226.325 815.315 226.092 815.315 225.851C814.301 225.851 813.288 225.851 812.244 225.851C812.244 225.734 812.244 225.617 812.244 225.497C807.482 224.945 802.572 224.856 797.811 225.497C797.71 225.614 797.608 225.731 797.504 225.851C796.787 225.865 796.071 225.866 795.354 225.851C795.354 226.085 795.354 226.318 795.354 226.559C794.949 226.559 794.544 226.559 794.126 226.559C794.126 226.793 794.126 227.026 794.126 227.267C793.011 227.384 791.896 227.501 790.748 227.621C790.748 227.855 790.748 228.088 790.748 228.329C790.343 228.329 789.937 228.329 789.52 228.329C789.52 228.563 789.52 228.796 789.52 229.037C788.977 229.334 788.433 229.629 787.888 229.922C787.434 230.168 787.434 230.168 786.971 230.42C786.142 230.807 786.142 230.807 785.22 230.807C785.119 231.157 785.018 231.508 784.913 231.869C784.305 232.235 783.69 232.588 783.071 232.931C782.758 233.278 782.449 233.63 782.15 233.993C781.947 233.993 781.744 233.993 781.535 233.993C781.535 234.226 781.535 234.46 781.535 234.701C781.326 234.759 781.117 234.818 780.902 234.878C779.767 235.546 779.178 236.431 778.371 237.548C777.753 238.371 777.064 238.998 776.315 239.657C776.055 239.963 775.796 240.27 775.528 240.586C774.853 241.345 774.371 241.662 773.551 242.135C773.333 242.496 773.333 242.496 773.11 242.865C772.63 243.551 772.63 243.551 771.939 243.816C770.937 243.921 769.95 243.928 768.945 243.905C768.945 244.138 768.945 244.372 768.945 244.613C767.83 244.613 766.715 244.613 765.567 244.613C765.567 244.379 765.567 244.146 765.567 243.905C765.289 243.9 765.012 243.895 764.726 243.89C764.364 243.873 764.002 243.856 763.628 243.838C763.269 243.826 762.909 243.814 762.538 243.801C761.575 243.551 761.575 243.551 761.043 242.692C760.915 242.391 760.786 242.091 760.653 241.781C760.349 241.547 760.045 241.314 759.732 241.073C759.732 240.839 759.732 240.606 759.732 240.365C759.428 240.248 759.124 240.131 758.811 240.011C758.397 239.425 757.988 238.835 757.583 238.241C756.768 237.384 756.768 237.384 755.74 237.179C755.74 236.945 755.74 236.712 755.74 236.471C755.537 236.471 755.335 236.471 755.126 236.471C755.126 236.237 755.126 236.004 755.126 235.763C754.923 235.763 754.721 235.763 754.512 235.763C754.512 235.529 754.512 235.296 754.512 235.055C754.208 234.938 753.904 234.821 753.59 234.701C753.59 234.467 753.59 234.234 753.59 233.993C753.185 233.993 752.78 233.993 752.362 233.993C752.048 233.648 751.742 233.291 751.441 232.931C750.739 232.424 750.019 231.974 749.291 231.515C749.291 231.281 749.291 231.048 749.291 230.807C748.886 230.807 748.481 230.807 748.063 230.807C748.063 230.573 748.063 230.34 748.063 230.099C747.354 229.982 746.644 229.865 745.913 229.745C745.913 229.511 745.913 229.278 745.913 229.037C745.73 228.986 745.546 228.935 745.357 228.882C744.82 228.723 744.29 228.531 743.764 228.329C743.764 228.095 743.764 227.862 743.764 227.621C743.396 227.577 743.029 227.533 742.651 227.488C741.529 227.329 740.525 227.018 739.465 226.559C739.465 226.325 739.465 226.092 739.465 225.851C738.552 225.851 737.64 225.851 736.701 225.851C736.701 225.617 736.701 225.384 736.701 225.143C731.836 225.143 726.972 225.143 721.961 225.143C721.961 225.377 721.961 225.61 721.961 225.851C721.049 225.851 720.136 225.851 719.197 225.851C719.197 226.085 719.197 226.318 719.197 226.559C718.69 226.559 718.183 226.559 717.661 226.559C717.661 226.793 717.661 227.026 717.661 227.267C716.293 227.442 716.293 227.442 714.898 227.621C714.898 227.855 714.898 228.088 714.898 228.329C714.391 228.329 713.884 228.329 713.362 228.329C713.362 228.563 713.362 228.796 713.362 229.037C713.122 229.156 712.882 229.276 712.634 229.399C712.323 229.557 712.013 229.715 711.692 229.878C711.382 230.034 711.072 230.19 710.753 230.351C709.947 230.719 709.947 230.719 709.677 231.515C709.043 231.816 709.043 231.816 708.276 232.09C708.022 232.182 707.769 232.274 707.507 232.369C707.311 232.438 707.115 232.506 706.913 232.577C706.913 232.811 706.913 233.044 706.913 233.285C706.508 233.285 706.103 233.285 705.685 233.285C705.603 233.497 705.52 233.708 705.435 233.926C704.925 235.01 704.42 235.593 703.478 236.183C702.195 237.136 701.215 238.398 700.157 239.657C699.891 239.949 699.625 240.241 699.351 240.542C698.552 241.512 697.888 242.541 697.219 243.632C696.779 244.259 696.779 244.259 695.858 244.967C695.747 245.436 695.644 245.908 695.551 246.383C695.247 246.558 695.247 246.558 694.937 246.737C694.679 247.432 694.487 248.139 694.286 248.858C693.987 249.644 693.622 250.037 693.094 250.631C692.726 251.728 692.726 251.728 692.48 252.755C692.278 252.755 692.075 252.755 691.866 252.755C691.765 253.456 691.663 254.157 691.559 254.879C691.255 254.996 690.951 255.112 690.638 255.233C690.536 256.167 690.435 257.102 690.331 258.065C690.128 258.065 689.925 258.065 689.716 258.065C689.729 258.371 689.742 258.678 689.755 258.994C689.715 260.232 689.483 261.161 689.102 262.313C688.9 262.313 688.697 262.313 688.488 262.313C688.387 264.299 688.285 266.285 688.181 268.331C687.978 268.331 687.776 268.331 687.567 268.331C687.567 273.471 687.567 278.611 687.567 283.907C687.77 283.907 687.972 283.907 688.181 283.907C688.282 285.659 688.384 287.411 688.488 289.217C685.043 289.217 681.597 289.217 678.047 289.217C677.554 288.079 677.722 286.938 677.74 285.677C677.537 285.677 677.335 285.677 677.126 285.677C676.844 282.492 676.772 279.34 676.78 276.141C676.779 275.692 676.778 275.243 676.777 274.781C676.779 271.907 676.896 269.068 677.126 266.207C677.329 266.207 677.531 266.207 677.74 266.207C677.725 265.825 677.711 265.444 677.696 265.051C677.697 263.05 678.075 261.16 678.45 259.215C678.516 258.852 678.581 258.488 678.649 258.113C678.748 257.588 678.748 257.588 678.85 257.053C678.939 256.579 678.939 256.579 679.03 256.096C679.297 255.159 679.67 254.585 680.197 253.817C680.443 253.029 680.666 252.231 680.869 251.427C680.974 251.013 681.08 250.599 681.189 250.172C681.267 249.856 681.345 249.54 681.425 249.215C681.628 249.215 681.83 249.215 682.039 249.215C682.077 249.025 682.115 248.835 682.154 248.64C682.384 247.635 682.67 246.658 682.961 245.675C683.163 245.675 683.366 245.675 683.575 245.675C683.619 245.463 683.663 245.251 683.709 245.033C683.847 244.414 684.014 243.803 684.189 243.197C684.392 243.197 684.594 243.197 684.803 243.197C684.828 243.014 684.854 242.832 684.88 242.644C685.209 241.411 685.766 240.41 686.339 239.303C686.541 239.303 686.744 239.303 686.953 239.303C687.022 239.062 687.092 238.821 687.164 238.573C687.722 237.132 688.455 235.428 689.716 234.701C689.818 234.35 689.919 234 690.024 233.639C690.226 233.639 690.429 233.639 690.638 233.639C690.638 233.405 690.638 233.172 690.638 232.931C690.84 232.931 691.043 232.931 691.252 232.931C691.353 232.58 691.455 232.23 691.559 231.869C691.762 231.869 691.964 231.869 692.173 231.869C692.256 231.657 692.338 231.445 692.423 231.227C692.787 230.453 693.124 229.953 693.709 229.391C693.911 229.391 694.114 229.391 694.323 229.391C694.386 229.186 694.449 228.982 694.515 228.771C695.091 227.684 695.856 227.248 696.779 226.559C697.039 226.26 697.299 225.96 697.566 225.652C698.287 224.821 698.977 224.314 699.85 223.727C699.952 223.493 700.053 223.26 700.157 223.019C700.869 222.524 701.575 222.054 702.307 221.603C702.541 221.457 702.776 221.311 703.017 221.16C703.535 220.895 703.535 220.895 704.15 220.895C704.302 220.369 704.302 220.369 704.457 219.833C705.126 219.419 705.126 219.419 705.954 219.059C706.225 218.937 706.497 218.815 706.777 218.689C707.527 218.417 707.527 218.417 708.449 218.417C708.55 218.066 708.651 217.716 708.756 217.355C709.605 216.966 709.605 216.966 710.675 216.625C712.152 216.147 712.152 216.147 713.591 215.545C714.376 215.189 714.982 215.176 715.819 215.231C715.819 214.997 715.819 214.764 715.819 214.523C716.17 214.45 716.521 214.378 716.883 214.303C717.341 214.207 717.799 214.11 718.256 214.014C718.488 213.966 718.72 213.919 718.959 213.87C720.093 213.729 720.093 213.729 721.039 213.107C722.697 212.755 724.319 212.691 726.002 212.681Z" fill="white"/>
<path d="M527.882 340.192C531.023 340.192 534.165 340.192 537.402 340.192C537.503 346.968 537.604 353.743 537.709 360.724C538.773 359.322 538.773 359.322 539.858 357.892C543.217 354.183 547.4 352.973 551.964 352.925C555.111 353.099 558.22 353.851 560.53 356.465C563.174 360.142 563.227 364.781 563.399 369.345C563.442 370.444 563.507 371.355 563.811 372.406C566.995 373.324 570.358 372.979 573.638 373.114C573.638 362.25 573.638 351.386 573.638 340.192C577.185 340.192 580.732 340.192 584.386 340.192C584.386 353.86 584.386 367.528 584.386 381.61C581.225 381.647 578.065 381.683 574.809 381.721C573.813 381.737 572.817 381.753 571.79 381.77C571.001 381.775 570.211 381.779 569.421 381.783C569.217 381.788 569.013 381.792 568.803 381.797C568.199 381.81 567.594 381.811 566.99 381.811C566.649 381.815 566.309 381.819 565.959 381.823C564.743 381.541 564.287 380.92 563.504 379.84C563.403 379.606 563.301 379.373 563.197 379.132C562.792 379.95 562.386 380.768 561.969 381.61C556.571 381.66 551.173 381.697 545.776 381.72C543.269 381.731 540.763 381.746 538.257 381.77C536.071 381.792 533.886 381.805 531.701 381.81C530.544 381.813 529.388 381.819 528.231 381.835C527.141 381.849 526.051 381.853 524.961 381.85C524.374 381.851 523.786 381.863 523.199 381.874C520.469 381.852 518.855 381.076 516.907 378.885C516.779 378.733 516.651 378.581 516.52 378.424C516.323 378.629 516.127 378.833 515.925 379.044C514.032 380.646 511.923 381.635 509.567 381.678C509.286 381.684 509.005 381.69 508.715 381.696C507.433 381.711 506.151 381.726 504.868 381.734C504.193 381.74 503.518 381.75 502.843 381.763C501.867 381.782 500.89 381.79 499.913 381.795C499.614 381.803 499.315 381.811 499.006 381.82C496.547 381.811 495.117 380.922 493.335 379.021C493.107 378.726 493.107 378.726 492.874 378.424C492.707 378.565 492.539 378.706 492.367 378.851C492.135 379.039 491.903 379.226 491.665 379.42C491.44 379.605 491.216 379.789 490.985 379.98C488.929 381.316 486.934 381.769 484.596 381.753C484.207 381.757 484.207 381.757 483.809 381.76C482.96 381.767 482.111 381.766 481.262 381.764C480.667 381.765 480.072 381.767 479.476 381.769C478.232 381.772 476.988 381.771 475.744 381.768C474.155 381.764 472.566 381.771 470.977 381.781C469.749 381.788 468.521 381.788 467.292 381.786C466.707 381.786 466.121 381.788 465.535 381.792C464.715 381.798 463.894 381.794 463.073 381.788C462.835 381.791 462.597 381.795 462.351 381.798C460.301 381.767 458.378 381.116 456.886 379.436C456.678 379.067 456.678 379.067 456.465 378.69C456.319 378.44 456.173 378.189 456.022 377.932C455.922 377.744 455.821 377.556 455.717 377.362C455.561 377.507 455.405 377.652 455.244 377.802C455.033 377.993 454.821 378.183 454.603 378.38C454.397 378.569 454.19 378.758 453.977 378.952C451.462 380.824 447.988 380.583 445.134 379.963C442.347 379.001 439.95 377.235 438.519 374.249C436.724 369.667 436.778 364.378 438.213 359.662C439.441 356.644 441.459 354.93 444.105 353.711C446.267 352.934 448.277 352.889 450.522 352.902C450.847 352.902 451.172 352.903 451.506 352.903C452.538 352.905 453.571 352.91 454.603 352.914C455.305 352.916 456.007 352.917 456.709 352.919C458.425 352.923 460.142 352.929 461.858 352.936C461.86 353.158 461.862 353.381 461.864 353.61C461.883 355.924 461.909 358.238 461.939 360.552C461.949 361.416 461.958 362.28 461.965 363.143C461.975 364.385 461.991 365.626 462.008 366.868C462.01 367.254 462.012 367.64 462.014 368.037C462.02 368.398 462.026 368.76 462.033 369.132C462.036 369.449 462.039 369.765 462.043 370.092C462.199 371.238 462.432 371.874 463.087 372.76C464.01 373.02 464.01 373.02 465.089 372.967C465.29 372.967 465.492 372.968 465.7 372.969C466.368 372.97 467.034 372.958 467.701 372.945C468.165 372.943 468.629 372.941 469.093 372.94C470.315 372.936 471.537 372.92 472.758 372.902C473.755 372.89 474.751 372.885 475.747 372.881C476.936 372.876 478.125 372.867 479.313 372.857C479.54 372.855 479.766 372.853 480 372.852C480.642 372.846 481.284 372.838 481.927 372.828C482.292 372.824 482.658 372.819 483.034 372.815C483.812 372.769 484.457 372.669 485.197 372.406C485.434 371.429 485.548 370.543 485.567 369.53C485.573 369.246 485.579 368.963 485.586 368.671C485.591 368.368 485.596 368.066 485.601 367.754C485.611 367.286 485.611 367.286 485.62 366.808C485.641 365.813 485.659 364.817 485.677 363.822C485.69 363.146 485.703 362.47 485.717 361.794C485.75 360.14 485.78 358.485 485.811 356.83C489.257 356.83 492.702 356.83 496.252 356.83C496.264 358.377 496.264 358.377 496.276 359.955C496.288 360.955 496.302 361.954 496.316 362.953C496.324 363.648 496.331 364.342 496.335 365.036C496.342 366.035 496.356 367.033 496.372 368.031C496.373 368.496 496.373 368.496 496.373 368.971C496.401 370.291 496.434 371.112 497.046 372.249C498.071 372.956 498.823 372.932 500.014 372.923C500.227 372.923 500.441 372.923 500.661 372.922C501.111 372.92 501.561 372.915 502.011 372.906C502.699 372.893 503.386 372.891 504.073 372.891C506.572 373.022 506.572 373.022 508.843 372.052C509.37 370.837 509.225 369.439 509.247 368.1C509.256 367.618 509.256 367.618 509.266 367.127C509.286 366.099 509.304 365.071 509.322 364.043C509.336 363.347 509.349 362.651 509.363 361.955C509.396 360.247 509.426 358.538 509.457 356.83C512.902 356.83 516.348 356.83 519.898 356.83C519.913 357.836 519.928 358.842 519.943 359.878C519.96 360.853 519.977 361.827 519.995 362.802C520.007 363.479 520.018 364.156 520.027 364.834C520.041 365.807 520.059 366.781 520.078 367.754C520.083 368.208 520.083 368.208 520.088 368.671C520.094 368.954 520.101 369.238 520.107 369.53C520.113 369.902 520.113 369.902 520.119 370.282C520.22 371.117 520.438 371.689 520.819 372.406C522.933 373.624 525.521 372.985 527.882 373.114C527.882 362.25 527.882 351.386 527.882 340.192ZM448.174 362.251C447.424 363.866 447.36 365.259 447.348 367.052C447.342 367.302 447.336 367.553 447.329 367.811C447.319 369.408 447.465 370.447 448.346 371.698C449.342 372.089 449.895 372.184 450.88 371.742C452.736 369.145 452.085 364.6 452.032 361.432C449.931 361.151 449.931 361.151 448.174 362.251ZM541.931 366.256C541.54 366.888 541.166 367.529 540.799 368.18C540.625 368.487 540.625 368.487 540.448 368.799C539.655 370.27 539.369 371.372 538.937 373.114C543.396 373.114 547.855 373.114 552.449 373.114C552.841 367.58 552.841 367.58 551.067 362.428C547.492 360.294 544.148 362.932 541.931 366.256Z" fill="white"/>
<path d="M312.921 166.733C312.921 166.967 312.921 167.2 312.921 167.441C313.105 167.361 313.289 167.281 313.478 167.198C313.699 167.161 313.921 167.125 314.15 167.087C314.61 167.552 314.61 167.552 315.071 168.149C315.716 168.565 315.716 168.565 316.299 168.857C316.299 169.091 316.299 169.324 316.299 169.565C316.907 169.916 316.907 169.916 317.528 170.273C317.528 170.507 317.528 170.74 317.528 170.981C317.762 171.069 317.996 171.156 318.238 171.247C319.148 171.735 319.488 172.111 319.984 173.105C319.984 173.456 319.984 173.806 319.984 174.167C320.187 174.167 320.39 174.167 320.598 174.167C321.406 175.908 322.016 177.553 322.441 179.477C322.555 179.857 322.669 180.236 322.786 180.628C323.604 184.667 322.966 189.632 321.335 193.338C320.913 194.068 320.485 194.748 319.984 195.407C320.765 195.417 321.545 195.424 322.326 195.429C322.654 195.434 322.654 195.434 322.989 195.438C324.28 195.445 325.465 195.306 326.74 195.053C327.459 195.147 328.177 195.259 328.89 195.407C328.991 195.173 329.092 194.94 329.197 194.699C329.197 194.933 329.197 195.166 329.197 195.407C329.685 195.33 329.685 195.33 330.183 195.252C330.609 195.186 331.035 195.119 331.462 195.053C331.676 195.019 331.891 194.985 332.112 194.951C333.734 194.699 333.734 194.699 334.417 194.699C334.417 194.933 334.417 195.166 334.417 195.407C334.873 195.232 334.873 195.232 335.339 195.053C336.11 195.023 336.874 195.012 337.645 195.018C337.869 195.019 338.093 195.019 338.323 195.02C339.036 195.022 339.75 195.026 340.463 195.031C340.947 195.033 341.431 195.034 341.915 195.036C343.101 195.04 344.287 195.046 345.472 195.053C345.472 195.287 345.472 195.52 345.472 195.761C345.853 195.688 346.233 195.615 346.625 195.54C348.451 195.306 350.115 195.701 351.902 196.115C352.531 196.257 353.161 196.397 353.791 196.535C354.066 196.599 354.342 196.662 354.625 196.728C355.311 196.897 355.311 196.897 355.913 196.469C355.913 196.703 355.913 196.936 355.913 197.177C358.041 197.352 358.041 197.352 360.213 197.531C360.213 197.765 360.213 197.998 360.213 198.239C360.399 198.27 360.586 198.3 360.779 198.332C363.442 198.824 365.948 199.749 368.504 200.717C368.504 200.951 368.504 201.184 368.504 201.425C368.715 201.498 368.926 201.57 369.143 201.645C369.42 201.74 369.697 201.836 369.982 201.934C370.256 202.028 370.53 202.123 370.813 202.22C371.377 202.418 371.937 202.626 372.496 202.841C372.597 203.075 372.699 203.308 372.803 203.549C373.145 203.717 373.487 203.885 373.84 204.058C374.836 204.553 375.168 204.822 375.874 205.673C376.115 205.768 376.355 205.863 376.603 205.961C377.698 206.532 378.191 207.441 378.945 208.505C379.452 208.868 379.962 209.226 380.48 209.567C380.48 209.801 380.48 210.034 380.48 210.275C380.67 210.363 380.86 210.45 381.056 210.54C381.816 211.056 382.001 211.471 382.323 212.399C382.525 212.399 382.728 212.399 382.937 212.399C384.091 213.558 384.809 214.662 385.394 216.293C385.394 216.643 385.394 216.994 385.394 217.355C385.596 217.355 385.799 217.355 386.008 217.355C386.008 217.939 386.008 218.523 386.008 219.125C384.799 218.918 384.175 218.237 383.244 217.355C381.5 215.899 381.5 215.899 379.559 214.877C379.458 214.643 379.356 214.41 379.252 214.169C378.566 213.815 378.566 213.815 377.736 213.505C376.634 213.066 375.56 212.604 374.492 212.067C368.567 209.324 361.043 207.412 354.645 207.448C353.787 207.443 353.064 207.295 352.228 207.089C349.431 206.731 346.645 206.703 343.834 206.748C343.456 206.752 343.456 206.752 343.07 206.757C342.845 206.761 342.619 206.765 342.388 206.77C341.787 206.735 341.787 206.735 340.866 206.381C340.232 206.411 339.598 206.465 338.966 206.536C338.465 206.59 338.465 206.59 337.955 206.645C337.572 206.69 337.572 206.69 337.181 206.735C337.181 206.501 337.181 206.268 337.181 206.027C336.725 206.377 336.725 206.377 336.26 206.735C335.748 206.749 335.236 206.75 334.724 206.735C334.623 206.852 334.522 206.969 334.417 207.089C333.833 207.186 333.247 207.263 332.66 207.331C332.117 207.396 332.117 207.396 331.563 207.463C330.8 207.552 330.037 207.64 329.274 207.729C327.042 207.981 327.042 207.981 324.852 208.515C323.283 208.972 321.729 209.111 320.119 209.257C319.811 209.288 319.503 209.318 319.186 209.35C317.604 209.501 316.044 209.603 314.457 209.567C314.457 209.801 314.457 210.034 314.457 210.275C313.996 210.23 313.996 210.23 313.527 210.185C313.131 210.149 312.734 210.113 312.326 210.076C311.931 210.039 311.535 210.002 311.128 209.964C310.808 209.95 310.487 209.936 310.157 209.921C310.056 210.038 309.955 210.155 309.85 210.275C309.086 210.301 308.325 210.274 307.56 210.253C306.789 210.241 306.789 210.241 306.104 210.474C305.551 210.629 305.551 210.629 304.937 210.275C304.336 210.253 304.336 210.253 303.655 210.305C303.4 210.321 303.146 210.336 302.884 210.352C302.485 210.38 302.485 210.38 302.077 210.408C301.815 210.423 301.552 210.439 301.281 210.455C300.018 210.536 298.801 210.637 297.567 210.983C297.567 210.749 297.567 210.516 297.567 210.275C297.263 210.392 296.959 210.509 296.646 210.629C295.874 210.659 295.111 210.67 294.339 210.664C294.115 210.663 293.892 210.663 293.661 210.662C292.948 210.66 292.234 210.656 291.521 210.651C291.037 210.649 290.553 210.648 290.069 210.646C288.883 210.642 287.698 210.636 286.512 210.629C286.512 210.395 286.512 210.162 286.512 209.921C286.227 209.979 285.942 210.038 285.648 210.098C282.579 210.653 279.327 209.409 276.378 208.505C276.277 208.739 276.175 208.972 276.071 209.213C276.071 208.979 276.071 208.746 276.071 208.505C275.691 208.454 275.311 208.403 274.919 208.35C274.223 208.252 273.582 208.141 272.904 207.93C272.312 207.724 272.312 207.724 271.465 208.151C271.465 207.917 271.465 207.684 271.465 207.443C271.116 207.363 270.768 207.282 270.409 207.2C268.914 206.816 267.446 206.341 265.975 205.85C265.745 205.774 265.515 205.699 265.278 205.621C264.253 205.274 263.454 204.945 262.559 204.257C262.032 203.995 261.501 203.745 260.966 203.505C260.689 203.38 260.413 203.255 260.128 203.126C259.811 202.985 259.811 202.985 259.488 202.841C259.488 202.607 259.488 202.374 259.488 202.133C259.197 202.023 258.905 201.914 258.605 201.801C257.646 201.425 257.646 201.425 257.031 201.071C257.031 200.837 257.031 200.604 257.031 200.363C256.217 199.982 255.409 199.622 254.575 199.301C254.575 199.067 254.575 198.834 254.575 198.593C254.385 198.483 254.195 198.374 253.999 198.261C253.577 198.018 253.154 197.774 252.732 197.531C252.732 197.297 252.732 197.064 252.732 196.823C252.523 196.765 252.314 196.706 252.099 196.646C250.97 195.981 250.374 195.117 249.574 194.002C249.121 193.384 248.658 192.837 248.145 192.287C247.512 191.513 247.512 191.513 247.512 190.451C247.309 190.451 247.106 190.451 246.898 190.451C246.542 189.222 246.569 188.199 246.59 186.911C246.895 187.028 247.199 187.145 247.512 187.265C247.512 187.499 247.512 187.732 247.512 187.973C247.844 188.104 247.844 188.104 248.184 188.239C249.126 188.721 249.78 189.357 250.583 190.097C251.405 190.536 251.405 190.536 252.118 190.805C252.118 191.039 252.118 191.272 252.118 191.513C252.553 191.683 252.988 191.853 253.423 192.022C253.665 192.116 253.908 192.211 254.157 192.308C254.805 192.547 255.449 192.749 256.11 192.929C256.11 193.163 256.11 193.396 256.11 193.637C256.323 193.697 256.535 193.757 256.754 193.82C257.055 193.905 257.355 193.991 257.665 194.08C258.007 194.177 258.349 194.275 258.701 194.375C259.395 194.581 260.086 194.795 260.774 195.023C265.719 196.646 270.954 197.967 276.103 198.189C277.015 198.24 277.909 198.368 278.814 198.505C279.835 198.647 280.86 198.723 281.886 198.792C282.107 198.807 282.328 198.822 282.555 198.838C285 198.99 287.442 198.979 289.89 198.947C289.89 199.181 289.89 199.414 289.89 199.655C290.194 199.538 290.498 199.421 290.811 199.301C291.913 199.29 293.011 199.325 294.112 199.358C295.156 199.397 295.156 199.397 296.031 198.593C295.876 198.452 295.721 198.311 295.561 198.166C295.362 197.978 295.162 197.791 294.957 197.597C294.757 197.413 294.558 197.228 294.352 197.037C293.882 196.469 293.882 196.469 293.882 195.407C293.679 195.407 293.476 195.407 293.268 195.407C293.166 194.823 293.065 194.239 292.961 193.637C292.758 193.637 292.555 193.637 292.346 193.637C292.152 193.218 291.961 192.797 291.771 192.376C291.61 192.025 291.61 192.025 291.447 191.667C289.552 186.701 290.189 181.996 291.425 176.999C291.628 176.999 291.83 176.999 292.039 176.999C292.059 176.695 292.078 176.391 292.098 176.078C292.401 174.613 293.02 173.722 293.863 172.618C294.003 172.425 294.143 172.232 294.287 172.033C294.647 171.548 295.031 171.085 295.417 170.627C295.62 170.627 295.823 170.627 296.031 170.627C296.031 170.394 296.031 170.16 296.031 169.919C296.437 169.802 296.842 169.686 297.26 169.565C297.26 169.332 297.26 169.098 297.26 168.857C297.564 168.857 297.868 168.857 298.181 168.857C298.181 168.624 298.181 168.39 298.181 168.149C299.231 167.25 299.949 166.958 301.252 167.087C301.252 166.854 301.252 166.62 301.252 166.379C304.93 164.66 309.261 165.202 312.921 166.733Z" fill="white"/>
<path d="M798.425 340.192C801.972 340.192 805.519 340.192 809.173 340.192C809.179 341.118 809.185 342.043 809.192 342.997C809.212 346.053 809.236 349.109 809.262 352.166C809.277 354.019 809.291 355.872 809.303 357.725C809.314 359.513 809.328 361.301 809.345 363.089C809.35 363.772 809.355 364.454 809.358 365.137C809.364 366.092 809.373 367.047 809.382 368.002C809.383 368.285 809.384 368.568 809.384 368.859C809.402 370.746 809.402 370.746 810.094 372.406C812.939 374.045 816.436 372.988 819.614 373.114C819.614 362.25 819.614 351.386 819.614 340.192C823.161 340.192 826.708 340.192 830.362 340.192C830.362 353.86 830.362 367.528 830.362 381.61C827.018 381.639 823.674 381.668 820.228 381.699C818.651 381.718 818.651 381.718 817.041 381.738C816.203 381.742 815.366 381.745 814.528 381.748C814.313 381.752 814.098 381.756 813.877 381.76C810.912 381.808 808.644 381.72 806.409 379.221C806.207 378.958 806.004 378.695 805.795 378.424C805.501 378.731 805.501 378.731 805.2 379.044C802.273 381.522 799.273 381.717 795.748 381.773C795.294 381.782 794.84 381.797 794.387 381.816C790.602 381.978 790.602 381.978 789.415 381.046C788.904 380.36 788.904 380.36 788.291 379.132C787.886 379.95 787.481 380.768 787.063 381.61C782.816 381.651 778.569 381.683 774.322 381.702C772.35 381.711 770.378 381.724 768.405 381.744C766.502 381.763 764.599 381.773 762.695 381.778C761.969 381.781 761.243 381.788 760.517 381.797C759.5 381.81 758.483 381.812 757.465 381.811C757.166 381.817 756.866 381.824 756.557 381.83C754.285 381.81 753.126 381.058 751.536 379.25C751.337 379.017 751.337 379.017 751.134 378.778C751.09 379.114 751.045 379.45 750.999 379.796C750.827 380.902 750.827 380.902 750.52 381.61C743.831 381.61 737.143 381.61 730.252 381.61C730.252 378.806 730.252 376.003 730.252 373.114C734.001 373.114 737.751 373.114 741.614 373.114C741.582 371.574 741.551 370.033 741.518 368.446C741.511 367.963 741.503 367.48 741.495 366.982C741.485 366.599 741.475 366.215 741.464 365.82C741.456 365.429 741.448 365.037 741.44 364.634C741.292 363.437 741.005 362.755 740.386 361.786C739.596 361.331 738.983 361.358 738.099 361.32C737.769 361.305 737.438 361.29 737.098 361.275C736.751 361.261 736.405 361.247 736.048 361.233C735.699 361.218 735.351 361.202 734.991 361.187C734.128 361.149 733.265 361.113 732.402 361.078C732.402 358.391 732.402 355.704 732.402 352.936C733.69 352.92 734.978 352.906 736.266 352.897C736.703 352.894 737.139 352.889 737.576 352.883C742.022 352.821 746.409 352.917 749.867 356.565C751.631 358.756 752.38 361.502 752.427 364.441C752.436 364.813 752.444 365.186 752.453 365.57C752.469 366.351 752.483 367.133 752.494 367.915C752.504 368.287 752.513 368.659 752.523 369.043C752.532 369.552 752.532 369.552 752.541 370.072C752.69 371.142 752.941 371.63 753.591 372.406C754.657 372.816 755.621 372.822 756.731 372.833C756.955 372.836 757.18 372.84 757.412 372.843C758.154 372.855 758.897 372.863 759.64 372.872C760.155 372.879 760.67 372.887 761.185 372.894C762.541 372.914 763.896 372.931 765.252 372.949C766.635 372.966 768.018 372.986 769.401 373.006C772.115 373.044 774.829 373.08 777.543 373.114C777.527 371.639 777.498 370.164 777.467 368.689C777.462 368.274 777.458 367.859 777.453 367.431C777.393 364.935 777.2 363.187 776.008 361.078C774.576 360.119 772.972 360.255 771.402 360.724C769.454 361.818 769.454 361.818 768.638 365.68C765.496 365.68 762.355 365.68 759.118 365.68C759.118 361.302 759.681 359.01 762.31 355.861C765.68 352.489 770.197 351.654 774.532 351.773C778.234 352.093 782.19 352.983 784.913 356.122C787.632 359.972 788.151 364.098 788.308 368.925C788.358 370.863 788.358 370.863 789.184 372.464C790.59 372.902 791.928 372.899 793.377 372.871C793.668 372.872 793.958 372.873 794.257 372.874C796.122 372.881 796.122 372.881 797.811 372.052C798.306 370.91 798.173 369.659 798.181 368.404C798.184 368.1 798.187 367.796 798.19 367.483C798.2 366.476 798.208 365.468 798.215 364.46C798.222 363.763 798.228 363.066 798.235 362.368C798.252 360.53 798.267 358.693 798.282 356.855C798.297 354.98 798.314 353.106 798.331 351.231C798.364 347.552 798.395 343.872 798.425 340.192Z" fill="white"/>
<path d="M1.84204 0C2.2474 0 2.65275 0 3.07039 0C3.10725 0.268348 3.14411 0.536696 3.1821 0.813176C5.15868 15.0278 8.27354 27.8135 16.5822 38.9398C16.826 39.2688 17.0699 39.5978 17.3211 39.9368C18.8258 41.9101 20.3969 43.6306 22.1901 45.2523C22.8299 45.8362 23.445 46.4306 24.059 47.0486C27.2924 50.2588 30.9331 52.8153 34.6343 55.2334C39.7152 58.5539 44.6785 62.0944 49.5429 65.8193C50.0603 66.2167 50.0603 66.2167 50.6688 66.5517C50.6688 66.7853 50.6688 67.0189 50.6688 67.2597C50.875 67.3368 51.0813 67.4139 51.2938 67.4934C52.4906 68.1168 53.4507 68.9727 54.4882 69.8925C54.7032 70.0809 54.9182 70.2692 55.1397 70.4633C57.0855 72.1733 59.0131 73.9101 60.9286 75.6649C61.4056 76.0993 61.8862 76.5284 62.3669 76.9573C62.7897 77.3372 62.7897 77.3372 63.221 77.7247C63.4672 77.9442 63.7134 78.1637 63.9671 78.3899C64.1389 78.5719 64.3107 78.754 64.4877 78.9416C64.4877 79.1752 64.4877 79.4089 64.4877 79.6496C64.6635 79.74 64.8392 79.8303 65.0203 79.9234C65.7903 80.4039 66.3711 80.9664 67.0212 81.6408C67.3466 81.9762 67.3466 81.9762 67.6785 82.3184C67.8416 82.4891 68.0047 82.6597 68.1727 82.8356C68.0646 83.8262 67.9116 84.2016 67.2719 84.8973C67.0181 85.115 66.7644 85.3327 66.503 85.5569C65.0902 86.8069 63.7655 88.1266 62.4497 89.509C61.8114 90.1779 61.1663 90.8348 60.5148 91.4864C59.4836 92.524 58.461 93.5723 57.4439 94.6282C57.1561 94.9261 56.8683 95.2241 56.5718 95.5311C55.8773 96.2162 55.8773 96.2162 55.5822 96.9955C55.3795 96.9955 55.1768 96.9955 54.968 96.9955C54.968 97.2291 54.968 97.4628 54.968 97.7035C54.4699 98.3088 53.9564 98.8977 53.4326 99.4735C53.2743 99.6852 53.1159 99.897 52.9528 100.115C52.5113 100.535 52.5113 100.535 51.283 100.535C51.2012 100.341 51.1194 100.147 51.0352 99.9474C48.7843 94.6005 48.7843 94.6005 46.0625 89.5615C45.8709 89.2444 45.6793 88.9273 45.4819 88.6005C43.0591 84.6805 40.4085 80.7992 37.3837 77.4689C36.8499 76.8176 36.8499 76.8176 36.8499 76.1096C36.5892 75.9844 36.5892 75.9844 36.3233 75.8566C35.461 75.2975 34.9018 74.6133 34.2205 73.7865C32.6335 71.9224 30.9421 70.3022 29.1728 68.6757C28.7872 68.3104 28.4021 67.9444 28.0176 67.5777C26.0788 65.7342 24.1352 63.9363 22.0714 62.2816C19.001 59.8074 16.2135 56.9726 13.5497 53.9405C13.3905 53.7603 13.2314 53.5801 13.0673 53.3944C11.9759 52.125 11.9759 52.125 11.9759 51.3297C11.7732 51.3297 11.5705 51.3297 11.3617 51.3297C5.89158 43.9165 2.45693 35.4931 0.768512 25.9859C0.668093 25.4333 0.55877 24.8826 0.439084 24.335C-0.0958289 21.7396 -0.0836343 19.1571 -0.0636806 16.5065C-0.0579884 15.7212 -0.0573831 14.9362 -0.0574579 14.1509C-0.0458847 10.3183 -0.0458847 10.3183 0.306608 9.91195C0.466457 8.85057 0.612518 7.79154 0.748045 6.72597C1.03812 4.4578 1.39085 2.23359 1.84204 0Z" fill="white"/>
<path d="M349.965 152.81C350.104 152.965 350.243 153.121 350.386 153.281C350.386 153.515 350.386 153.748 350.386 153.989C350.565 154.015 350.744 154.041 350.928 154.068C351.858 154.441 352.181 155.013 352.766 155.914C352.954 156.198 353.143 156.483 353.337 156.776C353.764 157.529 353.764 157.529 353.764 158.237C353.967 158.237 354.169 158.237 354.378 158.237C354.463 158.489 354.548 158.74 354.636 158.999C354.803 159.487 354.803 159.487 354.973 159.985C355.139 160.472 355.139 160.472 355.308 160.968C355.545 161.75 355.545 161.75 355.914 162.131C357.148 167.668 356.686 172.995 354.225 177.975C353.806 178.696 353.382 179.233 352.843 179.831C352.64 180.182 352.437 180.532 352.228 180.893C352.026 180.893 351.823 180.893 351.614 180.893C351.462 181.419 351.462 181.419 351.307 181.955C351.105 181.955 350.902 181.955 350.693 181.955C350.693 182.306 350.693 182.656 350.693 183.017C351.134 183.196 351.575 183.373 352.017 183.548C352.263 183.647 352.509 183.745 352.762 183.847C353.484 184.128 353.484 184.128 354.378 184.079C354.378 184.313 354.378 184.546 354.378 184.787C354.638 184.824 354.897 184.86 355.165 184.898C356.774 185.269 358.196 185.812 359.291 187.265C359.748 187.616 359.748 187.616 360.213 187.973C360.213 188.207 360.213 188.44 360.213 188.681C360.441 188.769 360.669 188.856 360.904 188.947C361.835 189.434 362.29 189.939 362.977 190.805C363.236 191.097 363.496 191.389 363.763 191.69C365.433 193.664 365.433 193.664 365.433 194.699C365.839 194.933 366.244 195.166 366.662 195.407C366.662 195.757 366.662 196.108 366.662 196.469C366.864 196.469 367.067 196.469 367.276 196.469C367.276 196.819 367.276 197.17 367.276 197.531C367.478 197.531 367.681 197.531 367.89 197.531C367.89 197.765 367.89 197.998 367.89 198.239C368.194 198.356 368.498 198.473 368.811 198.593C368.811 198.943 368.811 199.294 368.811 199.655C368.406 199.772 368 199.889 367.583 200.009C367.583 199.775 367.583 199.542 367.583 199.301C367.368 199.206 367.153 199.111 366.931 199.013C365.991 198.566 365.093 198.06 364.186 197.531C363.872 197.348 363.558 197.166 363.234 196.978C362.717 196.676 362.201 196.368 361.692 196.049C361.096 195.689 361.096 195.689 360.213 195.761C360.213 195.527 360.213 195.294 360.213 195.053C359.954 195.001 359.954 195.001 359.69 194.948C358.232 194.649 356.778 194.334 355.329 193.983C355.062 193.919 354.796 193.855 354.521 193.789C353.987 193.66 353.454 193.53 352.922 193.397C351.315 193.012 349.876 192.903 348.236 192.929C347.564 192.862 346.896 192.77 346.226 192.677C343.47 192.294 340.744 192.153 337.968 192.155C337.474 192.154 337.474 192.154 336.971 192.154C335.56 192.165 334.263 192.216 332.882 192.575C332.882 192.341 332.882 192.108 332.882 191.867C332.426 192.042 332.426 192.042 331.961 192.221C331.327 192.298 330.692 192.359 330.057 192.41C329.686 192.441 329.315 192.472 328.932 192.504C328.545 192.535 328.157 192.565 327.758 192.597C327.171 192.645 327.171 192.645 326.572 192.695C325.604 192.774 324.637 192.852 323.669 192.929C323.764 192.359 323.859 191.788 323.955 191.218C324.008 190.901 324.061 190.583 324.116 190.256C324.284 189.389 324.284 189.389 324.629 188.438C324.96 187.575 324.96 187.575 324.898 186.402C324.898 185.111 325.108 184.211 325.512 183.017C325.727 182.996 325.941 182.974 326.162 182.952C326.442 182.922 326.721 182.893 327.009 182.862C327.287 182.833 327.565 182.805 327.851 182.775C328.586 182.709 328.586 182.709 329.197 182.309C329.042 182.117 328.887 181.925 328.727 181.727C328.527 181.474 328.328 181.22 328.122 180.959C327.923 180.709 327.723 180.458 327.518 180.2C327.047 179.477 327.047 179.477 327.047 178.415C326.743 178.298 326.439 178.181 326.126 178.061C326.126 177.711 326.126 177.36 326.126 176.999C325.923 176.999 325.721 176.999 325.512 176.999C324.025 173.312 323.413 169.7 323.977 165.671C323.977 165.321 323.977 164.97 323.977 164.609C324.22 163.636 324.474 162.674 324.744 161.711C324.817 161.445 324.891 161.18 324.966 160.907C325.147 160.252 325.329 159.599 325.512 158.945C325.715 158.945 325.917 158.945 326.126 158.945C326.208 158.682 326.291 158.42 326.376 158.149C326.726 157.214 327.076 156.518 327.662 155.759C327.864 155.759 328.067 155.759 328.276 155.759C328.377 155.409 328.478 155.058 328.583 154.697C328.785 154.697 328.988 154.697 329.197 154.697C329.197 154.464 329.197 154.23 329.197 153.989C329.691 153.455 329.691 153.455 330.349 152.883C330.562 152.692 330.776 152.501 330.996 152.305C331.654 151.865 331.654 151.865 332.882 151.865C332.882 151.632 332.882 151.398 332.882 151.157C333.287 151.157 333.693 151.157 334.11 151.157C334.11 150.924 334.11 150.69 334.11 150.449C334.516 150.449 334.921 150.449 335.339 150.449C335.339 150.216 335.339 149.982 335.339 149.741C340.447 148.78 345.653 149.248 349.965 152.81Z" fill="white"/>
<path d="M671.291 340.192C674.838 340.192 678.385 340.192 682.039 340.192C682.039 351.056 682.039 361.921 682.039 373.114C690.856 372.939 690.856 372.939 699.85 372.76C699.546 371.942 699.242 371.125 698.929 370.282C698.001 366.208 698.594 361.691 700.215 357.959C701.8 354.948 704.178 353.235 707.085 352.34C711.364 351.302 716.33 351.468 720.13 354.196C722.629 356.314 724.135 358.96 724.724 362.494C725.101 367.592 725.144 372.635 722.536 376.964C720.335 379.944 717.237 381.386 713.893 381.706C712.765 381.74 711.64 381.742 710.511 381.731C710.081 381.73 709.651 381.73 709.221 381.731C708.064 381.731 706.907 381.725 705.75 381.718C704.537 381.711 703.323 381.71 702.11 381.709C699.818 381.706 697.525 381.697 695.233 381.687C692.132 381.672 689.03 381.667 685.929 381.661C681.05 381.651 676.171 381.629 671.291 381.61C671.291 367.942 671.291 354.274 671.291 340.192ZM709.677 361.078C708.929 362.371 708.9 363.446 708.833 364.95C708.82 365.218 708.808 365.485 708.795 365.761C708.717 367.982 708.69 370.299 709.37 372.406C710.178 373.3 710.539 373.458 711.673 373.645C712.786 373.586 712.786 373.586 713.477 372.649C714.451 370.793 714.35 369.113 714.36 367.008C714.366 366.679 714.373 366.35 714.379 366.011C714.389 363.969 714.222 362.522 713.362 360.724C711.977 359.576 710.999 360.023 709.677 361.078Z" fill="white"/>
<path d="M82.5296 33.1873C86.5169 37.5297 88.5992 43.6842 88.7684 49.9564C88.7477 56.776 86.8102 63.066 82.6064 67.9676C79.4615 71.117 76.237 72.1622 72.151 71.9722C68.6586 71.654 65.514 69.502 63.1412 66.5447C59.0657 60.7774 58.0255 54.3352 58.3465 47.0817C58.8402 41.7832 61.1806 36.9214 64.4883 33.2758C64.6573 33.07 64.8263 32.8642 65.0005 32.6522C69.9544 27.0543 77.6678 28.5342 82.5296 33.1873Z" fill="white"/>
<path d="M213.425 182.663C213.527 182.663 213.628 182.663 213.732 182.663C213.741 183.165 213.747 183.666 213.751 184.168C213.755 184.447 213.759 184.726 213.762 185.014C213.733 185.816 213.619 186.496 213.425 187.265C213.222 187.265 213.02 187.265 212.811 187.265C212.764 187.637 212.764 187.637 212.715 188.017C212.266 190.18 211.218 191.907 210.047 193.637C209.845 193.637 209.642 193.637 209.433 193.637C209.329 193.944 209.329 193.944 209.222 194.256C208.13 196.414 206.343 196.898 204.381 197.59C203.627 197.799 203.627 197.799 203.291 198.239C199.956 198.806 195.809 199.181 192.55 198.023C190.999 197.678 189.015 198.487 187.637 199.309C187.214 199.642 186.806 200.001 186.402 200.363C186.167 200.48 185.933 200.597 185.691 200.717C185.435 200.892 185.435 200.892 185.173 201.071C185.126 201.289 185.08 201.506 185.032 201.731C184.808 202.752 184.272 203.433 183.739 204.269C182.403 206.547 181.788 209.211 181.129 211.824C180.874 212.753 180.874 212.753 180.567 213.107C180.306 215.408 180.597 216.916 181.795 218.771C183.178 220.105 184.698 220.673 186.402 221.249C186.402 221.482 186.402 221.716 186.402 221.957C186.611 221.971 186.82 221.986 187.035 222.001C188.301 222.436 189.221 223.289 190.087 224.435C190.303 225.213 190.303 225.213 190.394 225.851C190.596 225.851 190.799 225.851 191.008 225.851C191.665 229.242 191.892 232.073 190.298 235.143C190.029 235.591 189.754 236.034 189.472 236.471C189.244 236.829 189.016 237.186 188.781 237.555C187.752 238.931 186.483 240.07 185.173 241.073C184.971 241.073 184.768 241.073 184.559 241.073C184.559 241.306 184.559 241.54 184.559 241.781C183.754 242.314 182.948 242.844 182.141 243.374C181.797 243.602 181.797 243.602 181.446 243.834C181.226 243.978 181.007 244.122 180.78 244.27C180.476 244.47 180.476 244.47 180.166 244.674C179.646 244.967 179.646 244.967 179.031 244.967C179.031 245.2 179.031 245.434 179.031 245.675C178.533 245.912 178.034 246.148 177.534 246.383C177.257 246.514 176.979 246.646 176.692 246.781C175.961 247.091 175.961 247.091 175.346 247.091C175.346 247.324 175.346 247.558 175.346 247.799C173.674 248.5 173.674 248.5 171.968 249.215C172.273 247.809 172.458 247.532 173.323 246.601C174.174 245.603 174.892 244.479 175.634 243.374C176.313 242.426 177.048 241.585 177.803 240.719C178.393 239.972 178.963 239.208 179.53 238.44C179.75 238.149 179.75 238.149 179.974 237.853C181.43 235.884 182.265 234.185 182.196 231.556C182.069 230.542 181.699 229.858 181.181 229.037C181.181 228.803 181.181 228.57 181.181 228.329C181.004 228.227 180.827 228.125 180.645 228.02C180.205 227.767 179.766 227.511 179.328 227.254C179.02 227.074 179.02 227.074 178.705 226.891C178.396 226.709 178.396 226.709 178.08 226.524C177.452 226.164 177.452 226.164 176.575 225.851C176.575 225.617 176.575 225.384 176.575 225.143C176.188 225.07 175.802 224.997 175.404 224.922C173.594 224.46 171.949 223.537 170.433 222.311C170.332 221.96 170.23 221.61 170.126 221.249C169.923 221.249 169.721 221.249 169.512 221.249C166.833 216.055 166.387 211.113 167.613 205.164C168.799 201.049 170.987 197.405 173.301 194.03C173.692 193.457 174.071 192.875 174.444 192.287C175.17 191.343 175.941 190.734 176.882 190.097C177.085 190.097 177.287 190.097 177.496 190.097C177.496 189.863 177.496 189.63 177.496 189.389C178.408 189.039 179.32 188.688 180.26 188.327C180.26 188.093 180.26 187.86 180.26 187.619C185.552 186.219 190.56 186.02 195.614 188.681C196.426 189.06 197.246 189.405 198.071 189.743C198.294 189.843 198.517 189.943 198.747 190.046C201.23 191.055 204.287 191.517 206.756 190.314C207.613 189.727 208.351 189.047 209.126 188.327C209.329 188.327 209.531 188.327 209.74 188.327C209.823 188.118 209.906 187.91 209.992 187.695C210.35 186.921 210.732 186.347 211.237 185.694C211.815 184.939 212.366 184.185 212.907 183.393C213.078 183.152 213.249 182.911 213.425 182.663Z" fill="white"/>
<path d="M653.173 355.768C656.619 355.768 660.064 355.768 663.614 355.768C663.614 364.296 663.614 372.824 663.614 381.61C655.69 381.653 655.69 381.653 652.302 381.662C649.994 381.668 647.686 381.676 645.378 381.69C643.516 381.702 641.655 381.708 639.793 381.711C639.084 381.713 638.375 381.717 637.666 381.722C636.67 381.73 635.675 381.731 634.679 381.731C634.243 381.736 634.243 381.736 633.798 381.742C630.681 381.726 628.163 380.856 625.843 378.424C623.836 376.046 623.034 372.92 623.049 369.667C623.05 369.326 623.05 368.986 623.051 368.635C623.054 368.207 623.057 367.78 623.06 367.34C623.066 365.974 623.072 364.609 623.079 363.202C626.119 363.202 629.159 363.202 632.291 363.202C632.407 366.432 632.407 366.432 632.438 367.438C632.505 369.072 632.586 370.555 633.213 372.052C634.222 372.831 635.105 372.856 636.3 372.873C636.675 372.88 637.05 372.887 637.436 372.894C638.041 372.9 638.041 372.9 638.659 372.907C639.077 372.913 639.495 372.92 639.913 372.927C641.012 372.946 642.11 372.96 643.209 372.973C644.331 372.987 645.453 373.005 646.575 373.023C648.774 373.057 650.974 373.086 653.173 373.114C653.173 367.39 653.173 361.666 653.173 355.768Z" fill="white"/>
<path d="M592.063 340.192C595.509 340.192 598.954 340.192 602.504 340.192C602.504 353.86 602.504 367.528 602.504 381.61C599.058 381.61 595.613 381.61 592.063 381.61C592.063 367.942 592.063 354.274 592.063 340.192Z" fill="white"/>
<path d="M165.52 213.107C165.722 213.107 165.925 213.107 166.134 213.107C166.123 213.406 166.112 213.706 166.101 214.014C166.038 217.089 166.177 219.106 167.746 221.669C168.684 222.776 169.625 223.578 170.74 224.435C170.559 225.634 170.508 225.79 169.589 226.537C169.259 226.778 168.93 227.019 168.591 227.267C168.312 227.588 168.033 227.909 167.746 228.24C167.518 228.503 167.29 228.766 167.055 229.037C166.852 229.037 166.65 229.037 166.441 229.037C166.34 229.387 166.238 229.738 166.134 230.099C165.076 231.161 165.076 231.161 164.291 231.161C164.19 231.511 164.089 231.862 163.984 232.223C163.326 232.896 163.326 232.896 162.506 233.617C161.494 234.511 160.576 235.42 159.685 236.471C159.35 236.815 159.011 237.155 158.668 237.489C158.389 237.761 158.389 237.761 158.105 238.039C157.823 238.314 157.823 238.314 157.535 238.595C157.177 238.949 156.819 239.302 156.461 239.657C156.285 239.829 156.11 240.002 155.929 240.18C155.548 240.558 155.17 240.94 154.794 241.324C154.603 241.519 154.412 241.713 154.215 241.914C154.042 242.092 153.869 242.269 153.691 242.453C153.236 242.843 153.236 242.843 152.622 242.843C152.47 243.368 152.47 243.368 152.315 243.905C151.257 244.967 151.257 244.967 150.472 244.967C150.32 245.492 150.32 245.492 150.165 246.029C149.496 246.715 149.496 246.715 148.668 247.445C147.782 248.231 146.959 249.008 146.173 249.923C145.66 250.424 145.142 250.918 144.619 251.405C144.349 251.658 144.079 251.912 143.802 252.173C143.102 252.755 143.102 252.755 142.488 252.755C142.387 253.105 142.286 253.456 142.181 253.817C141.759 254.414 141.759 254.414 141.26 254.879C140.956 254.879 140.652 254.879 140.339 254.879C140.281 254.06 140.281 254.06 140.339 253.109C140.742 252.578 140.742 252.578 141.26 252.047C141.568 251.458 141.875 250.867 142.181 250.277C142.579 249.63 142.982 248.989 143.39 248.352C144.027 247.351 144.655 246.354 145.252 245.321C146.051 243.939 146.91 242.613 147.769 241.28C148.325 240.414 148.325 240.414 148.647 239.582C148.937 238.949 148.937 238.949 149.858 238.241C150.176 237.659 150.482 237.067 150.78 236.471C151.389 235.484 152.015 234.512 152.641 233.539C153.19 232.651 153.673 231.742 154.157 230.807C154.465 230.453 154.772 230.099 155.079 229.745C155.237 229.431 155.395 229.117 155.559 228.793C155.704 228.523 155.85 228.253 156 227.975C156.203 227.975 156.405 227.975 156.614 227.975C156.684 227.727 156.754 227.478 156.825 227.223C157.315 225.987 158.002 225.113 158.764 224.081C159.156 223.296 159.156 223.296 159.378 222.665C159.581 222.665 159.783 222.665 159.992 222.665C160.106 222.282 160.106 222.282 160.222 221.891C160.649 220.783 161.166 220.063 161.835 219.125C162.19 218.552 162.541 217.977 162.89 217.399C163.075 217.094 163.259 216.79 163.449 216.475C163.783 215.92 164.114 215.364 164.442 214.805C164.787 214.227 165.151 213.665 165.52 213.107Z" fill="white"/>
<path d="M179.339 183.725C179.339 183.959 179.339 184.192 179.339 184.433C180.859 184.608 180.859 184.608 182.409 184.787C182.562 185.313 182.562 185.313 182.717 185.849C181.911 186.145 181.105 186.44 180.298 186.734C180.069 186.818 179.84 186.903 179.604 186.99C177.873 187.619 177.873 187.619 177.189 187.619C177.189 187.853 177.189 188.086 177.189 188.327C176.879 188.502 176.568 188.678 176.249 188.858C175.033 189.647 174.263 190.685 173.404 191.936C172.848 192.627 172.437 192.982 171.661 193.283C170.663 192.796 170.663 192.796 169.819 192.221C169.819 191.987 169.819 191.754 169.819 191.513C164.372 191.264 160.638 191.514 155.977 195.005C155.386 195.407 155.386 195.407 154.772 195.407C154.772 195.641 154.772 195.874 154.772 196.115C154.278 196.422 154.278 196.422 153.774 196.735C152.831 197.356 152.127 198.014 151.394 198.947C150.984 199.419 150.575 199.891 150.165 200.363C149.861 200.246 149.557 200.129 149.244 200.009C149.244 199.659 149.244 199.308 149.244 198.947C149.447 198.947 149.649 198.947 149.858 198.947C149.907 198.75 149.956 198.553 150.006 198.35C150.675 195.826 151.592 193.724 153.236 191.867C153.564 191.419 153.89 190.969 154.215 190.517C155.305 189.076 156.475 187.982 157.843 186.911C158.042 186.746 158.242 186.582 158.447 186.412C159.924 185.253 161.303 184.748 163.063 184.433C163.063 184.199 163.063 183.966 163.063 183.725C168.307 182.24 174.051 182.798 179.339 183.725Z" fill="white"/>
<path d="M193.158 168.503C194.677 169.288 195.486 170.331 196.228 172.043C196.747 174.447 196.597 176.561 195.614 178.769C194.553 180.589 193.175 182.305 191.274 182.851C189.693 183.123 188.513 182.933 187.016 182.309C187.016 182.075 187.016 181.842 187.016 181.601C186.832 181.513 186.649 181.426 186.459 181.336C185.371 180.618 184.95 179.767 184.559 178.415C184.34 175.367 184.664 173.139 186.363 170.716C188.256 168.164 190.399 168.171 193.158 168.503Z" fill="white"/>
<path d="M768.024 340.192C771.368 340.192 774.712 340.192 778.158 340.192C778.158 342.529 778.158 344.865 778.158 347.272C774.813 347.272 771.469 347.272 768.024 347.272C768.024 344.936 768.024 342.599 768.024 340.192Z" fill="white"/>
<path d="M510.378 386.92C513.519 386.92 516.661 386.92 519.898 386.92C519.898 389.256 519.898 391.593 519.898 394C516.756 394 513.615 394 510.378 394C510.378 391.664 510.378 389.327 510.378 386.92Z" fill="white"/>
<path d="M491.646 386.92C494.179 386.92 496.713 386.92 499.323 386.92C499.323 389.256 499.323 391.593 499.323 394C496.789 394 494.256 394 491.646 394C491.646 391.664 491.646 389.327 491.646 386.92Z" fill="white"/>
<path d="M482.126 386.92C484.659 386.92 487.193 386.92 489.803 386.92C489.803 389.256 489.803 391.593 489.803 394C487.27 394 484.736 394 482.126 394C482.126 391.664 482.126 389.327 482.126 386.92Z" fill="white"/>
<path d="M643.346 345.148C645.88 345.148 648.413 345.148 651.024 345.148C651.024 347.485 651.024 349.821 651.024 352.228C648.49 352.228 645.957 352.228 643.346 352.228C643.346 349.892 643.346 347.555 643.346 345.148Z" fill="white"/>
<path d="M633.827 345.148C636.36 345.148 638.894 345.148 641.504 345.148C641.504 347.485 641.504 349.821 641.504 352.228C638.97 352.228 636.437 352.228 633.827 352.228C633.827 349.892 633.827 347.555 633.827 345.148Z" fill="white"/>
<path d="M453.26 340.192C455.793 340.192 458.327 340.192 460.937 340.192C460.937 342.529 460.937 344.865 460.937 347.272C458.403 347.272 455.87 347.272 453.26 347.272C453.26 344.936 453.26 342.599 453.26 340.192Z" fill="white"/>
<path d="M443.74 340.192C446.274 340.192 448.807 340.192 451.417 340.192C451.417 342.529 451.417 344.865 451.417 347.272C448.884 347.272 446.35 347.272 443.74 347.272C443.74 344.936 443.74 342.599 443.74 340.192Z" fill="white"/>
<path d="M132.357 34.6918C132.459 35.0423 132.561 35.3927 132.667 35.7538C132.462 35.7538 132.258 35.7538 132.047 35.7538C132.15 35.4034 132.252 35.0529 132.357 34.6918Z" fill="white"/>
<path d="M14.126 34.6918C14.3303 34.6918 14.5347 34.6918 14.7452 34.6918C14.643 35.0423 14.5408 35.3927 14.4356 35.7538C14.3334 35.4034 14.2312 35.0529 14.126 34.6918Z" fill="white"/>
<path d="M72.4724 89.2076C72.675 89.3244 72.8777 89.4412 73.0865 89.5615C72.7825 89.5615 72.4785 89.5615 72.1653 89.5615C72.2666 89.4447 72.368 89.3279 72.4724 89.2076Z" fill="white"/>
<path d="M104.717 83.5436C105.336 83.8976 105.336 83.8976 105.336 83.8976L104.717 83.5436Z" fill="white"/>
<path d="M129.591 58.0557C130.21 58.4097 130.21 58.4097 130.21 58.4097L129.591 58.0557Z" fill="white"/>
</g>
<defs>
<clipPath id="clip0_112_740">
<rect width="858" height="394" fill="white"/>
</clipPath>
</defs>
</svg>
